<svg width="128" height="99" viewBox="0 0 128 99" fill="none" xmlns="http://www.w3.org/2000/svg">
  <path
    d="M108.412 8.25457C99.9911 4.33061 91.1157 1.56946 82.0105 0C80.7689 2.27319 79.6302 4.60081 78.6254 6.98289C68.9378 5.52098 59.0641 5.52098 49.3701 6.98289C48.3397 4.60081 47.2074 2.2732 45.9658 0.0268953C36.8282 1.59701 27.953 4.3575 19.5321 8.28214C2.79272 33.3712 -1.72471 57.8648 0.546864 81.979C10.3435 89.3134 21.2982 94.8888 32.9441 98.4615C35.5612 94.8888 37.884 91.0734 39.8676 87.0941C36.0859 85.66 32.4195 83.901 28.9321 81.7895C29.86 81.1135 30.7557 80.4366 31.626 79.6785C52.1408 89.4764 75.8547 89.4764 96.3756 79.6785C97.246 80.4095 98.142 81.1135 99.038 81.7895C95.5569 83.8739 91.8837 85.66 88.1082 87.0941C90.1178 91.0734 92.4149 94.8622 95.0257 98.4344C106.672 94.8622 117.626 89.2868 127.423 81.9524H127.455C130.117 54.0214 122.912 29.7712 108.412 8.25457ZM42.7343 67.1423C36.4186 67.1423 31.2165 61.2691 31.2165 54.1243C31.2165 46.9795 36.2907 41.1063 42.7343 41.1063C49.1781 41.1063 54.3483 46.9795 54.2459 54.1243C54.2459 61.2691 49.1461 67.1423 42.7343 67.1423ZM85.2484 67.1423C78.9326 67.1423 73.7304 61.2691 73.7304 54.1243C73.7304 46.9795 78.8302 41.1063 85.2484 41.1063C91.6597 41.1063 96.862 46.9795 96.7596 54.1243C96.7596 61.2691 91.6597 67.1423 85.2484 67.1423Z"
    fill="#FF0328"
  />
</svg>
