<svg width="37" height="36" viewBox="0 0 37 36" fill="none" xmlns="http://www.w3.org/2000/svg">
<g clip-path="url(#clip0_1_569)">
<path d="M18.3201 3.24141C23.1294 3.24141 23.699 3.2625 25.5904 3.34687C27.3482 3.42422 28.2974 3.71953 28.9302 3.96563C29.7669 4.28906 30.3716 4.68281 30.9974 5.30859C31.6302 5.94141 32.0169 6.53906 32.3404 7.37578C32.5865 8.00859 32.8818 8.96484 32.9591 10.7156C33.0435 12.6141 33.0646 13.1836 33.0646 17.9859C33.0646 22.7953 33.0435 23.3648 32.9591 25.2563C32.8818 27.0141 32.5865 27.9633 32.3404 28.5961C32.0169 29.4328 31.6232 30.0375 30.9974 30.6633C30.3646 31.2961 29.7669 31.6828 28.9302 32.0062C28.2974 32.2523 27.3412 32.5477 25.5904 32.625C23.6919 32.7094 23.1224 32.7305 18.3201 32.7305C13.5107 32.7305 12.9412 32.7094 11.0498 32.625C9.29194 32.5477 8.34272 32.2523 7.70991 32.0062C6.87319 31.6828 6.26851 31.2891 5.64272 30.6633C5.00991 30.0305 4.62319 29.4328 4.29976 28.5961C4.05366 27.9633 3.75835 27.007 3.68101 25.2563C3.59663 23.3578 3.57554 22.7883 3.57554 17.9859C3.57554 13.1766 3.59663 12.607 3.68101 10.7156C3.75835 8.95781 4.05366 8.00859 4.29976 7.37578C4.62319 6.53906 5.01694 5.93437 5.64272 5.30859C6.27554 4.67578 6.87319 4.28906 7.70991 3.96563C8.34272 3.71953 9.29898 3.42422 11.0498 3.34687C12.9412 3.2625 13.5107 3.24141 18.3201 3.24141ZM18.3201 0C13.4334 0 12.8216 0.0210937 10.9021 0.105469C8.9896 0.189844 7.67476 0.499219 6.53569 0.942187C5.34741 1.40625 4.34194 2.01797 3.34351 3.02344C2.33804 4.02187 1.72632 5.02734 1.26226 6.20859C0.819287 7.35469 0.509912 8.6625 0.425537 10.575C0.341162 12.5016 0.320068 13.1133 0.320068 18C0.320068 22.8867 0.341162 23.4984 0.425537 25.418C0.509912 27.3305 0.819287 28.6453 1.26226 29.7844C1.72632 30.9727 2.33804 31.9781 3.34351 32.9766C4.34194 33.975 5.34741 34.5937 6.52866 35.0508C7.67476 35.4937 8.98257 35.8031 10.8951 35.8875C12.8146 35.9719 13.4263 35.993 18.313 35.993C23.1998 35.993 23.8115 35.9719 25.731 35.8875C27.6435 35.8031 28.9584 35.4937 30.0974 35.0508C31.2787 34.5937 32.2841 33.975 33.2826 32.9766C34.281 31.9781 34.8998 30.9727 35.3568 29.7914C35.7998 28.6453 36.1091 27.3375 36.1935 25.425C36.2779 23.5055 36.299 22.8937 36.299 18.007C36.299 13.1203 36.2779 12.5086 36.1935 10.5891C36.1091 8.67656 35.7998 7.36172 35.3568 6.22266C34.9138 5.02734 34.3021 4.02187 33.2966 3.02344C32.2982 2.025 31.2927 1.40625 30.1115 0.949219C28.9654 0.50625 27.6576 0.196875 25.7451 0.1125C23.8185 0.0210938 23.2068 0 18.3201 0Z" fill="#FF0328"/>
<path d="M18.3201 8.75391C13.2154 8.75391 9.07397 12.8953 9.07397 18C9.07397 23.1047 13.2154 27.2461 18.3201 27.2461C23.4248 27.2461 27.5662 23.1047 27.5662 18C27.5662 12.8953 23.4248 8.75391 18.3201 8.75391ZM18.3201 23.9977C15.0083 23.9977 12.3224 21.3117 12.3224 18C12.3224 14.6883 15.0083 12.0023 18.3201 12.0023C21.6318 12.0023 24.3177 14.6883 24.3177 18C24.3177 21.3117 21.6318 23.9977 18.3201 23.9977Z" fill="#FF0328"/>
<path d="M30.0904 8.38809C30.0904 9.5834 29.1201 10.5467 27.9318 10.5467C26.7365 10.5467 25.7732 9.57637 25.7732 8.38809C25.7732 7.19277 26.7435 6.22949 27.9318 6.22949C29.1201 6.22949 30.0904 7.19981 30.0904 8.38809Z" fill="#FF0328"/>
</g>
<defs>
<clipPath id="clip0_1_569">
<rect width="36" height="36" fill="white" transform="translate(0.320068)"/>
</clipPath>
</defs>
</svg>
