<svg width="37" height="32" viewBox="0 0 37 32" fill="none" xmlns="http://www.w3.org/2000/svg">
<path d="M23.417 4.77041C23.807 6.4237 25.2916 7.65532 27.0644 7.65532C29.1341 7.65532 30.812 5.97743 30.812 3.90774C30.812 1.83805 29.1341 0.160156 27.0644 0.160156C25.2547 0.160156 23.7455 1.44273 23.3941 3.14874C20.3634 3.47377 17.9967 6.0442 17.9967 9.15928C17.9967 9.16631 17.9967 9.17158 17.9967 9.1786C14.7007 9.3174 11.691 10.2556 9.30158 11.7367C8.41432 11.0498 7.30041 10.6404 6.09163 10.6404C3.19089 10.6404 0.840088 12.9912 0.840088 15.8919C0.840088 17.9968 2.07698 19.8099 3.86381 20.648C4.03775 26.7446 10.6808 31.6483 18.8524 31.6483C27.024 31.6483 33.6758 26.7394 33.841 20.6375C35.6137 19.7941 36.8401 17.9862 36.8401 15.8937C36.8401 12.993 34.4893 10.6421 31.5886 10.6421C30.385 10.6421 29.2764 11.048 28.3909 11.7297C25.9804 10.238 22.9373 9.29983 19.6079 9.17509C19.6079 9.16982 19.6079 9.16631 19.6079 9.16103C19.6079 6.9297 21.2664 5.07787 23.417 4.77392V4.77041ZM9.09075 19.2249C9.17859 17.3203 10.4436 15.8585 11.9142 15.8585C13.3847 15.8585 14.5092 17.4029 14.4213 19.3074C14.3335 21.212 13.2354 21.9042 11.7631 21.9042C10.2907 21.9042 9.0029 21.1294 9.09075 19.2249ZM25.7924 15.8585C27.2647 15.8585 28.5297 17.3203 28.6158 19.2249C28.7036 21.1294 27.414 21.9042 25.9435 21.9042C24.4729 21.9042 23.373 21.2137 23.2852 19.3074C23.1973 17.4029 24.32 15.8585 25.7924 15.8585ZM24.0424 23.6313C24.3183 23.6594 24.494 23.9458 24.3868 24.2023C23.482 26.3651 21.3455 27.8849 18.8524 27.8849C16.3593 27.8849 14.2246 26.3651 13.318 24.2023C13.2108 23.9458 13.3865 23.6594 13.6623 23.6313C15.2787 23.4679 17.0269 23.3783 18.8524 23.3783C20.6779 23.3783 22.4243 23.4679 24.0424 23.6313Z" fill="#FF0328"/>
</svg>
