<svg width="36" height="26" viewBox="0 0 36 26" fill="none" xmlns="http://www.w3.org/2000/svg">
<path d="M35.6414 5.50945C35.6414 5.50945 35.2898 3.02463 34.207 1.93357C32.8359 0.497583 31.3031 0.490544 30.6 0.406074C25.5656 0.0400389 18.007 0.0400391 18.007 0.0400391H17.993C17.993 0.0400391 10.4344 0.0400389 5.4 0.406074C4.69688 0.490544 3.16406 0.497583 1.79297 1.93357C0.710156 3.02463 0.365625 5.50945 0.365625 5.50945C0.365625 5.50945 0 8.43069 0 11.3449V14.0761C0 16.9903 0.358594 19.9115 0.358594 19.9115C0.358594 19.9115 0.710156 22.3963 1.78594 23.4874C3.15703 24.9234 4.95703 24.8741 5.75859 25.029C8.64141 25.3035 18 25.388 18 25.388C18 25.388 25.5656 25.3739 30.6 25.0149C31.3031 24.9304 32.8359 24.9234 34.207 23.4874C35.2898 22.3963 35.6414 19.9115 35.6414 19.9115C35.6414 19.9115 36 16.9973 36 14.0761V11.3449C36 8.43069 35.6414 5.50945 35.6414 5.50945ZM14.2805 17.3915V7.2622L24.0047 12.3445L14.2805 17.3915Z" fill="#FF0328"/>
</svg>
