<svg width="20" height="21" viewBox="0 0 20 21" fill="none" xmlns="http://www.w3.org/2000/svg">
<g clip-path="url(#clip0_589_653)">
<path fill-rule="evenodd" clip-rule="evenodd" d="M13.4762 18.7991C16.8339 17.3925 19.0005 14.1028 18.9892 10.4615C18.9665 5.493 14.9282 1.48868 9.94829 1.50002C6.31831 1.52271 3.03999 3.72338 1.66741 7.09245C0.294825 10.4615 1.07754 14.3297 3.6639 16.8934C6.25025 19.4571 10.1184 20.2057 13.4762 18.7991ZM13.2153 18.175C16.3235 16.8705 18.3313 13.8304 18.3199 10.4613C18.2973 5.86716 14.5538 2.16913 9.94831 2.19181C6.59058 2.2145 3.56182 4.24502 2.29133 7.36453C1.02084 10.4727 1.74684 14.0459 4.14035 16.4168C6.53387 18.7763 10.1071 19.4796 13.2153 18.175Z" fill="white"/>
<path d="M10.0277 6.0601C10.4474 6.09413 11.9675 6.58191 12.3532 6.85416C12.0242 5.91264 10.9352 5.78786 10.0277 6.0601Z" fill="white"/>
<path fill-rule="evenodd" clip-rule="evenodd" d="M14.2135 7.52336C13.648 7.36333 13.0626 7.13307 12.4664 6.89863L12.3531 6.85408C12.3191 6.69527 12.1716 6.50243 11.888 6.25286C11.4796 5.88987 10.6969 5.90121 10.0277 6.06002C9.29032 5.88987 8.55298 5.8218 7.84967 5.99196C4.23511 6.99006 4.17819 8.8843 4.11101 11.1199C4.0713 12.4415 4.02801 13.8823 3.24414 15.3278C3.53908 15.963 6.78337 19.6838 11.4683 18.6855C11.4683 18.6855 9.86885 14.84 13.4875 12.991C16.4255 11.4936 18.5354 8.7031 14.2135 7.52336ZM14.9281 10.0531C14.9281 10.3593 14.5538 10.5182 14.3382 10.3026C14.1227 10.0871 14.2702 9.71275 14.5765 9.70141C14.7693 9.71275 14.9281 9.86022 14.9281 10.0531ZM10.4247 8.4536C10.4247 9.10019 10.0276 9.69006 9.42643 9.93962C8.82522 10.1892 8.13325 10.0531 7.66816 9.58797C7.20307 9.12288 7.06695 8.43092 7.31651 7.8297C7.56607 7.22849 8.15594 6.83146 8.80253 6.83146C9.23359 6.83146 9.64196 7.00161 9.9369 7.29655C10.2545 7.61417 10.4247 8.02254 10.4247 8.4536ZM16.1065 10.8865C16.1298 10.8662 16.153 10.8455 16.1759 10.8245H16.1872C16.1605 10.8455 16.1336 10.8662 16.1065 10.8865ZM16.1065 10.8865C15.6957 11.1941 15.2375 11.4156 14.7693 11.6072C14.2701 11.8114 13.7483 11.9702 13.2265 12.0836C12.7047 12.1857 12.1716 12.2197 11.6384 12.2084C11.1166 12.1857 10.5834 12.0836 10.1297 11.7887L10.107 11.8114C10.4813 12.2311 11.0485 12.4239 11.6157 12.4693C12.1716 12.5147 12.7274 12.4126 13.2605 12.2765C13.7937 12.129 14.3042 11.9475 14.8033 11.7093C15.2637 11.4844 15.714 11.2293 16.1065 10.8865Z" fill="white"/>
<path d="M9.94829 8.46496C9.94829 8.91871 9.67604 9.33843 9.24498 9.50858C8.82526 9.67874 8.33749 9.58799 8.00852 9.25902C7.67955 8.93005 7.5888 8.45362 7.75896 8.02256C7.92911 7.60284 8.34883 7.31925 8.80258 7.31925C9.43782 7.3306 9.94829 7.84106 9.94829 8.46496Z" fill="white"/>
<path d="M16.2327 10.7677C14.9282 11.6865 13.4422 12.3785 11.3436 12.3785C10.3567 12.3785 10.1638 11.3349 9.5059 11.8453C9.16559 12.1062 7.98585 12.6961 7.04432 12.6621C6.1028 12.6167 4.58274 12.0609 4.16303 10.0644C3.99287 12.0722 3.91347 13.5469 3.15344 15.2371C4.65081 17.642 8.22406 19.491 11.4684 18.6969C11.1167 16.258 13.2493 13.8759 14.4404 12.6621C14.9055 12.1857 15.7789 11.437 16.2327 10.7677Z" fill="white"/>
<path fill-rule="evenodd" clip-rule="evenodd" d="M1.00049 10.5001C1.00049 5.52947 5.02996 1.5 10.0006 1.5C14.9712 1.5 19.0006 5.52947 19.0006 10.5001C19.0006 15.4707 14.9712 19.5001 10.0006 19.5001C5.02996 19.5001 1.00049 15.4707 1.00049 10.5001Z" stroke="white" stroke-width="1.2"/>
</g>
<defs>
<clipPath id="clip0_589_653">
<rect width="20" height="20" fill="white" transform="translate(0 0.5)"/>
</clipPath>
</defs>
</svg>