<svg width="20" height="21" viewBox="0 0 20 21" fill="none" xmlns="http://www.w3.org/2000/svg">
<path d="M15.7733 3.03531C13.9708 1.68168 12.0806 1 10.1221 1C8.90422 1 7.65707 1.26294 6.39044 1.79854C2.83412 3.28851 0.865967 6.01525 0.534694 9.91059C0.330084 12.316 1.0316 14.5266 2.61003 16.4645C4.37357 18.6361 6.69248 19.8145 9.47908 19.98C11.4277 20.1066 13.2595 19.6295 14.9256 18.5972C15.4323 18.2856 15.8999 17.896 16.3579 17.526L16.4261 17.4773C16.6794 17.2728 16.7184 16.9222 16.5235 16.6398C16.3384 16.3768 15.9974 16.2989 15.7246 16.4353C15.6369 16.484 15.5394 16.5619 15.4517 16.6398C13.9123 17.9837 12.1488 18.6654 10.1709 18.7043C8.18321 18.7238 6.37095 18.1297 4.81202 16.8638C4.58792 16.6787 4.38331 16.484 4.1787 16.2892C4.08127 16.2016 3.99358 16.1042 3.89615 16.0165L3.75 15.8802L8.2027 8.83937L8.40731 9.19969C8.47551 9.32629 8.47552 9.43341 8.47552 9.50157V12.277C8.47552 12.6471 8.50475 13.0853 8.68013 13.4846C8.81653 13.8059 9.06011 14.0299 9.34267 14.1176C9.63497 14.2052 9.9565 14.137 10.2585 13.9423C10.5314 13.7572 10.7652 13.504 10.9893 13.1632C11.457 12.4231 11.9247 11.683 12.3826 10.9429L13.6103 8.98544L14 9.11204V11.0597C14 11.5077 14.0584 11.9069 14.1754 12.2867C14.4092 13.0366 14.9256 13.6306 15.6076 13.9325C16.2702 14.2247 17.0009 14.2149 17.6732 13.9033C18.5209 13.504 19.0763 12.8126 19.3393 11.8193C19.5732 10.9331 19.4952 10.0469 19.3881 9.29707C19.0178 6.67746 17.7901 4.57397 15.7538 3.04505L15.7733 3.03531ZM18.1799 11.1668C18.1019 11.868 17.7901 12.3744 17.2543 12.6763C16.923 12.871 16.5333 12.91 16.202 12.7931C15.8805 12.6763 15.6271 12.4328 15.5005 12.1017C15.3835 11.8193 15.3153 11.4785 15.3056 11.1376C15.2861 10.6702 15.2959 10.193 15.2959 9.72556C15.2959 9.4821 15.2959 9.2289 15.2959 8.98544C15.2959 8.56669 15.2374 8.22585 15.1107 7.9337C14.9548 7.56364 14.6918 7.32019 14.3702 7.2228C14.0487 7.13516 13.6882 7.21306 13.3569 7.43705C12.9087 7.74867 12.5969 8.19664 12.3826 8.54722C11.9149 9.29707 11.4375 10.0372 10.9698 10.787L10.1611 12.0725L9.80061 12.0141L9.76164 11.7998V11.6148V10.6312C9.76164 9.74503 9.76164 8.86858 9.76164 7.98239C9.76164 7.64155 9.71292 7.33966 9.63497 7.08647C9.5278 6.74562 9.3037 6.50216 9.00166 6.434C8.70936 6.35609 8.38782 6.47295 8.1345 6.72615C7.89091 6.96961 7.69605 7.28123 7.50118 7.58312L7.44272 7.6805C6.46839 9.21916 5.49405 10.7578 4.51972 12.2867L3.27257 14.2539C3.27257 14.2539 3.2336 14.3123 3.20437 14.3415L2.98027 14.6532L2.76592 14.361C2.41516 13.7183 2.18132 13.0853 2.03517 12.4426C1.44082 9.74503 2.01568 7.32019 3.74025 5.23618C5.02637 3.68778 6.70223 2.74316 8.7191 2.4218C12.9964 1.74011 17.0691 4.51554 18.0045 8.74198C18.1994 9.62817 18.2578 10.417 18.1799 11.1571V11.1668Z" fill="white"/>
</svg>