<svg width="18" height="21" viewBox="0 0 18 21" fill="none" xmlns="http://www.w3.org/2000/svg">
<g clip-path="url(#clip0_1_858)">
<path d="M15.4463 1.69795C15.288 1.77572 15.1511 1.89536 14.9962 1.98111C14.5595 2.22106 14.3951 2.19979 14.0288 1.87343C11.2006 -0.650372 7.00732 -0.622455 4.23011 1.95386C4.00069 2.16656 3.81487 2.18251 3.54922 2.07616C3.2071 1.93923 2.94615 1.67203 2.61074 1.51716C2.51951 1.68532 2.63824 1.78436 2.7013 1.88872C3.59148 3.38093 4.86001 4.51222 6.26069 5.51589C6.74771 5.86485 7.25754 6.17991 7.79956 6.44313C7.91629 6.49962 8.00282 6.52621 8.13229 6.44512C8.83934 6.00576 9.56048 5.98981 10.2675 6.44379C10.4426 6.55612 10.56 6.47171 10.6942 6.40125C12.1525 5.62889 13.4311 4.62987 14.5467 3.42414C15.0874 2.83988 15.5597 2.21042 15.9098 1.48127C15.7005 1.45202 15.5959 1.62484 15.447 1.69862L15.4463 1.69795ZM11.2147 10.8633C10.9155 10.7383 10.8357 10.5256 10.8424 10.2351C10.8565 9.62696 10.825 9.02476 10.5768 8.45313C10.4004 8.04701 10.1414 7.71134 9.76106 7.47471C9.37734 7.23543 8.98692 7.2228 8.59986 7.46807C7.88878 7.91939 7.62918 8.61465 7.55069 9.39897C7.52251 9.68346 7.52318 9.97193 7.53459 10.2577C7.54532 10.5223 7.43598 10.6978 7.20723 10.8181C6.95298 10.9523 6.7021 11.0933 6.40693 11.2548C8.14906 12.2591 8.62065 14.0079 9.19555 15.7726C9.48803 14.8693 9.73959 14.0185 10.1501 13.2275C10.5647 12.4286 11.1362 11.7706 11.9634 11.2827C11.6877 11.1258 11.4623 10.9676 11.2134 10.8639L11.2147 10.8633ZM12.9206 7.52523C13.4217 7.26667 13.5948 6.75021 13.3969 6.22644C13.3453 6.08885 13.2896 6.07755 13.1863 6.1613C12.547 6.67776 11.8259 7.06859 11.0779 7.48203C11.7064 7.79044 12.3135 7.83896 12.9206 7.52523ZM7.30114 7.50662C6.53506 7.07856 5.80789 6.68707 5.16524 6.16462C5.03375 6.05761 5.00156 6.14668 4.96131 6.24638C4.77884 6.6977 4.94588 7.20751 5.396 7.47538C6.00645 7.83896 6.63099 7.7911 7.30114 7.50662ZM0.408421 17.0488C1.08394 16.5124 1.76684 15.984 2.43096 15.4343C2.64092 15.2608 2.73149 15.2455 2.88376 15.5041C3.34328 16.2844 3.8417 17.0422 4.31329 17.8159C4.41458 17.9814 4.47228 18.0053 4.6212 17.8604C5.0834 17.4124 5.56706 16.9863 6.0306 16.5397C6.21374 16.3635 6.30698 16.3462 6.45724 16.5915C7.35078 18.0525 8.2631 19.5015 9.19756 21.0004C10.181 19.4251 11.1456 17.8797 12.123 16.315C12.7462 16.8926 13.3399 17.443 13.9557 18.0139C14.4119 17.2828 14.8627 16.5676 15.3061 15.8477C15.6945 15.2169 15.6905 15.2143 16.2754 15.6816C16.7443 16.0558 17.2119 16.4313 17.6835 16.8022C17.7673 16.868 17.8358 16.9644 17.9988 16.9737C17.6775 16.3575 17.4286 15.7334 17.2079 15.0993C16.533 13.1664 16.362 11.165 16.3754 9.13642C16.3821 8.12278 16.4458 7.10382 16.2607 6.09816C16.1185 5.32579 15.8387 4.60063 15.4268 3.87745C15.0733 4.32744 14.752 4.76347 14.3629 5.14035C14.2355 5.26398 14.3381 5.36501 14.3891 5.46604C14.5964 5.87815 14.7164 6.31152 14.6795 6.77214C14.6064 7.70137 14.0758 8.31288 13.2433 8.68111C12.9106 8.82801 12.5564 8.94832 12.178 8.92306C12.0291 8.91309 11.9614 8.95098 12.007 9.10651C12.013 9.12778 12.0231 9.15104 12.0197 9.17099C11.9084 9.81573 12.2713 10.1281 12.812 10.3787C13.3345 10.6213 13.8182 10.9444 14.3321 11.2401C14.2777 11.3737 14.155 11.4229 14.0429 11.4841C13.5465 11.7573 13.0521 12.0331 12.5537 12.3016C11.9989 12.6001 11.6622 13.09 11.363 13.6104C10.6888 14.7842 10.2803 16.0624 9.88918 17.3459C9.68726 18.0079 9.48937 18.672 9.29349 19.336C9.27135 19.4118 9.25123 19.4835 9.1875 19.546C9.02986 19.3752 9.00973 19.1505 8.94802 18.9452C8.4932 17.4377 8.06119 15.9262 7.43933 14.4705C6.92011 13.2555 6.14263 12.3296 4.89892 11.8084C4.66413 11.7101 4.44678 11.5705 4.22072 11.4508C4.02014 11.3452 4.01276 11.2581 4.2234 11.1424C4.82647 10.8108 5.41948 10.4618 6.02255 10.1301C6.21374 10.0251 6.32778 9.91477 6.31436 9.67216C6.30161 9.44683 6.44852 9.17431 6.36333 9.00016C6.25801 8.78414 5.9387 8.94233 5.71531 8.88384C4.7661 8.63326 3.99733 8.17994 3.74778 7.16763C3.61161 6.61727 3.6854 6.06957 3.96446 5.56707C4.08253 5.35504 4.08387 5.21745 3.88866 5.02802C3.53983 4.69036 3.23393 4.30816 2.94749 3.86482C2.57652 4.4637 2.3518 5.08717 2.18409 5.73258C2.03383 6.31152 1.98217 6.90309 1.97882 7.50064C1.97077 8.74692 2.0184 9.9932 1.92516 11.2395C1.78026 13.1804 1.30666 15.0328 0.452026 16.7883C0.419155 16.8561 0.388968 16.9252 0.358109 16.9936C0.374208 17.0116 0.390308 17.0295 0.406408 17.0475L0.408421 17.0488Z" fill="white"/>
<path d="M1.92711 11.2404C2.02035 9.99416 1.97205 8.74788 1.98077 7.5016C1.9848 6.90339 2.03578 6.31248 2.18604 5.73354C2.35375 5.08814 2.57848 4.46466 2.94944 3.86578C3.23589 4.30913 3.54111 4.69132 3.89061 5.02898C4.08649 5.21841 4.08448 5.35534 3.96641 5.56804C3.68735 6.07054 3.61356 6.61824 3.74974 7.16859C3.99996 8.18091 4.76872 8.63422 5.71727 8.88481C5.93998 8.94396 6.25929 8.7851 6.36528 9.00113C6.45048 9.17527 6.30424 9.44779 6.31631 9.67312C6.32973 9.91573 6.21569 10.0261 6.0245 10.1311C5.42143 10.4628 4.82842 10.8117 4.22535 11.1434C4.01471 11.2591 4.02209 11.3461 4.22267 11.4518C4.44874 11.5708 4.66608 11.711 4.90087 11.8094C6.14458 12.3305 6.92207 13.2564 7.44129 14.4715C8.06314 15.9271 8.49515 17.4393 8.94997 18.9461C9.01168 19.1515 9.03181 19.3762 9.18945 19.547C9.25318 19.4852 9.27331 19.4127 9.29544 19.337C9.49132 18.6729 9.68922 18.0096 9.89114 17.3469C10.2822 16.0634 10.6908 14.7852 11.3649 13.6114C11.6641 13.0909 12.0009 12.6004 12.5556 12.3026C13.0541 12.0347 13.5485 11.7582 14.0449 11.485C14.1562 11.4239 14.2797 11.374 14.334 11.2411C13.8202 10.946 13.3365 10.6223 12.8139 10.3797C12.2732 10.1284 11.9096 9.81669 12.0217 9.17195C12.025 9.15201 12.015 9.12875 12.0089 9.10748C11.9633 8.95194 12.0311 8.91405 12.18 8.92402C12.5577 8.94928 12.9119 8.82897 13.2453 8.68208C14.0778 8.31451 14.6084 7.703 14.6815 6.77311C14.7177 6.31248 14.5983 5.87911 14.391 5.46701C14.3407 5.36664 14.2374 5.26494 14.3649 5.14131C14.7539 4.76444 15.0753 4.3284 15.4288 3.87841C15.8407 4.60159 16.1204 5.32676 16.2626 6.09912C16.4478 7.10479 16.384 8.12374 16.3773 9.13739C16.3632 11.166 16.535 13.1674 17.2098 15.1003C17.4312 15.7344 17.6794 16.3578 18.0007 16.9747C17.8377 16.9654 17.7686 16.869 17.6854 16.8032C17.2139 16.4323 16.7463 16.0561 16.2774 15.6825C15.6924 15.2152 15.6965 15.2179 15.308 15.8487C14.8653 16.5685 14.4138 17.2831 13.9577 18.0149C13.3419 17.4439 12.7482 16.8936 12.125 16.316C11.1476 17.8813 10.1829 19.4267 9.19952 21.0013C8.26506 19.5025 7.35274 18.0528 6.4592 16.5925C6.30893 16.3472 6.21502 16.3645 6.03255 16.5406C5.56901 16.9873 5.08535 17.414 4.62315 17.8614C4.47423 18.0056 4.41587 17.9823 4.31524 17.8168C3.84298 17.0438 3.34523 16.2854 2.88572 15.5051C2.73344 15.2472 2.64288 15.2618 2.43291 15.4353C1.76879 15.985 1.08589 16.5134 0.410372 17.0498C0.394272 17.0318 0.378172 17.0139 0.362072 16.9959C0.393602 16.9275 0.423117 16.8583 0.455988 16.7905C1.31062 15.0351 1.78355 13.1833 1.92912 11.2418L1.92711 11.2404Z" fill="white"/>
<path d="M10.6939 6.40092C10.5598 6.47204 10.4424 6.55646 10.2673 6.44346C9.56025 5.98949 8.83979 6.00544 8.13207 6.44479C8.0026 6.52522 7.91539 6.4993 7.79934 6.4428C7.25798 6.17958 6.74749 5.86452 6.26047 5.51557C4.86046 4.51189 3.59126 3.3806 2.70107 1.88839C2.63869 1.78337 2.51928 1.68433 2.61051 1.51683C2.94592 1.6717 3.20687 1.93891 3.549 2.07583C3.81464 2.18218 4.00046 2.16623 4.22988 1.95353C7.0071 -0.622783 11.2011 -0.651364 14.0286 1.8731C14.3942 2.19946 14.5592 2.2214 14.9959 1.98078C15.1509 1.8957 15.2878 1.77606 15.4461 1.69763C15.595 1.62451 15.7003 1.45169 15.9089 1.48027C15.5588 2.20943 15.0865 2.83889 14.5458 3.42314C13.4296 4.62888 12.1516 5.62856 10.6933 6.40026L10.6939 6.40092Z" fill="white"/>
<path d="M10.1512 13.2272C9.7407 14.0182 9.48847 14.8696 9.19666 15.7723C8.62176 14.0075 8.15017 12.2587 6.40804 11.2544C6.7032 11.0929 6.95409 10.952 7.20833 10.8177C7.43776 10.6967 7.54643 10.5213 7.53569 10.2574C7.52429 9.97156 7.52295 9.68243 7.5518 9.39861C7.62961 8.61428 7.88989 7.91902 8.60096 7.4677C8.98803 7.22243 9.37845 7.23506 9.76216 7.47435C10.1418 7.71098 10.4015 8.04664 10.5779 8.45276C10.8261 9.02439 10.8576 9.62726 10.8435 10.2348C10.8368 10.5252 10.9167 10.7379 11.2158 10.8629C11.4647 10.9666 11.6901 11.1248 11.9658 11.2817C11.1387 11.7695 10.5672 12.4282 10.1526 13.2265L10.1512 13.2272Z" fill="white"/>
<path d="M13.1869 6.16162C13.2902 6.07787 13.3459 6.08983 13.3975 6.22675C13.5954 6.75053 13.4224 7.26632 12.9212 7.52555C12.3141 7.83928 11.7071 7.79075 11.0785 7.48234C11.8265 7.06891 12.5476 6.67807 13.1869 6.16162Z" fill="white"/>
<path d="M5.39662 7.47502C4.94649 7.20716 4.77946 6.69734 4.96192 6.24602C5.00217 6.14632 5.03437 6.05725 5.16585 6.16427C5.80783 6.68604 6.53568 7.07821 7.30176 7.50626C6.6316 7.79075 6.0064 7.8386 5.39662 7.47502Z" fill="white"/>
</g>
<defs>
<clipPath id="clip0_1_858">
<rect width="17.64" height="21" fill="white" transform="matrix(-1 0 0 1 18 0)"/>
</clipPath>
</defs>
</svg>
