<svg width="20" height="21" viewBox="0 0 20 21" fill="none" xmlns="http://www.w3.org/2000/svg">
<path fill-rule="evenodd" clip-rule="evenodd" d="M7.95018 2.51785C6.85415 3.0764 5.95748 3.54909 5.9577 3.56834C5.95822 3.61793 8.58812 4.92106 8.68146 4.91788C8.7239 4.91651 9.03192 4.77776 9.36595 4.60967L9.97331 4.30405L10.6366 4.63764L11.2999 4.97129L12.3861 4.49377C14.0228 3.7742 14.1928 3.69534 14.1662 3.66889C14.1308 3.63372 13.5438 3.32521 11.9511 2.50481C11.1813 2.1083 10.4342 1.71957 10.2908 1.64086C10.1473 1.56208 10.0104 1.49879 9.98643 1.50002C9.96248 1.50124 9.04614 1.95924 7.95011 2.51778L7.95018 2.51785ZM3.14311 4.9532L2.00221 5.52984V8.06033C2.00221 9.45212 2.01717 10.5908 2.03558 10.5908C2.054 10.5908 2.61524 10.3527 3.28294 10.0618L4.49699 9.5327V6.8654L5.09028 7.18161C5.54742 7.4251 6.00493 7.668 6.46258 7.91048L7.2416 8.32314L7.58823 8.16975C7.80564 8.07338 8.0226 7.97615 8.23913 7.8779C8.40644 7.80164 8.81717 7.62065 9.15186 7.47563C9.48656 7.33053 9.79635 7.18457 9.84026 7.15134C9.89861 7.10715 9.18708 6.72247 7.20845 5.72835C5.71701 4.97901 4.44888 4.36828 4.39039 4.37123C4.33189 4.37419 3.77065 4.63598 3.14311 4.95313V4.9532ZM14.3717 5.11517C13.5946 5.45834 12.9583 5.75285 12.9576 5.76965C12.9569 5.78644 13.3804 6.03281 13.8987 6.31709C14.417 6.60144 14.8412 6.84925 14.8412 6.86792C14.8412 6.88659 14.3825 7.10398 13.822 7.35122C13.2613 7.59838 11.8444 8.22446 10.6731 8.74249L6.74829 10.4782C5.761 10.9148 4.8711 11.3084 4.77069 11.3529C2.75411 12.246 2.19987 12.4938 2.12377 12.5363C2.04722 12.5791 2.02991 12.828 2.01628 14.0768L2 15.5663L3.02029 16.0749L4.04052 16.5835L5.45525 15.9589C6.23339 15.6153 6.86999 15.3163 6.86999 15.2942C6.86999 15.2722 6.72618 15.1806 6.55055 15.0905C6.37484 15.0003 6.012 14.8008 5.74427 14.6469C5.47655 14.493 5.20963 14.3519 5.15099 14.3331C5.09242 14.3145 5.04534 14.2818 5.0463 14.2605C5.04725 14.2392 5.67023 13.9497 6.43061 13.6171C7.90745 12.971 9.03767 12.4731 11.4641 11.3996C12.5491 10.9197 13.6343 10.4402 14.7195 9.96071C15.6732 9.53948 16.7822 9.04761 17.1838 8.86755L17.914 8.54024L17.9302 7.03378L17.9465 5.52739L16.9117 5.00777C16.3425 4.72197 15.856 4.48887 15.8305 4.48973C15.805 4.49052 15.1485 4.77199 14.3715 5.11524L14.3717 5.11517ZM17.6368 10.5498C17.4843 10.6227 17.1832 10.7591 16.9675 10.853C16.7519 10.9468 16.3427 11.1275 16.0582 11.2545L15.541 11.4853L15.5292 12.8078C15.5227 13.5351 15.4953 14.127 15.4683 14.1232C15.4071 14.1143 14.4377 13.6279 13.4633 13.1171C12.7601 12.7484 12.7159 12.7338 12.5506 12.8138C12.4551 12.8602 11.884 13.1107 11.2816 13.3707C10.6792 13.6307 10.1667 13.8604 10.1425 13.8812C10.1185 13.9019 11.3309 14.5448 12.8368 15.3099L15.5748 16.701L16.7444 16.109C17.3877 15.7835 17.9346 15.4865 17.9598 15.4492C18.0165 15.3652 18.0117 10.4057 17.9549 10.4124C17.9324 10.4151 17.7893 10.4769 17.6368 10.5497L17.6368 10.5498ZM11.1599 16.3711C10.957 16.4564 10.7542 16.5419 10.5514 16.6275C9.93913 16.8867 10.0591 16.8953 9.33059 16.5405C8.84538 16.3042 8.63623 16.2313 8.54546 16.2667C8.47739 16.2932 7.89132 16.5512 7.24307 16.8399C6.59483 17.1287 6.04199 17.3649 6.01451 17.3649C5.74251 17.3649 6.19471 17.6292 7.93943 18.4902L9.98562 19.5L10.8466 19.0842C11.3201 18.8555 12.2751 18.3974 12.969 18.0664C13.6628 17.7353 14.2219 17.4558 14.2114 17.4452C14.2009 17.4347 13.6195 17.1426 12.9195 16.7962L11.6466 16.1664L11.1599 16.3712V16.3711Z" fill="white"/>
</svg>