<svg width="32" height="32" viewBox="0 0 32 32" fill="none" xmlns="http://www.w3.org/2000/svg">
<path fill-rule="evenodd" clip-rule="evenodd" d="M0 16C0 7.16344 7.16344 0 16 0C24.8366 0 32 7.16344 32 16C32 24.8366 24.8366 32 16 32C7.16344 32 0 24.8366 0 16ZM24.7251 5.09178C23.5205 5.09178 22.5433 6.06792 22.5433 7.27285C22.5433 8.47739 23.5205 9.45466 24.7251 9.45466C25.9296 9.45466 26.9069 8.47739 26.9069 7.27285C26.9069 6.0683 25.9296 5.09103 24.7251 5.09103V5.09178ZM8 16.0008C8 11.5824 11.5821 8.00016 16.0003 7.99998H16.0006C20.4189 8.00016 24 11.5824 24 16.0008C24 20.4193 20.419 24 16.0006 24C11.5823 24 8 20.4193 8 16.0008ZM22.5 16.0008C22.5 12.4106 19.5902 9.50016 16.0006 9.49998H16.0003C12.4106 9.50016 9.5 12.4108 9.5 16.0008C9.5 19.5905 12.4103 22.5 16.0006 22.5C19.5906 22.5 22.5 19.5908 22.5 16.0008Z" fill="white"/>
</svg>
