<svg width="20" height="20" viewBox="0 0 20 20" fill="none" xmlns="http://www.w3.org/2000/svg">
<path fill-rule="evenodd" clip-rule="evenodd" d="M6.49593 1.55135C7.4026 1.51009 7.69231 1.5 10.0008 1.5H9.99814C12.3073 1.5 12.596 1.51009 13.5027 1.55135C14.4076 1.59279 15.0256 1.73605 15.5675 1.94625C16.1271 2.16318 16.5999 2.45359 17.0727 2.92641C17.5455 3.39886 17.8359 3.87309 18.0537 4.43215C18.2627 4.9726 18.4061 5.59027 18.4486 6.49517C18.4894 7.40183 18.5 7.69154 18.5 10C18.5 12.3085 18.4894 12.5975 18.4486 13.5041C18.4061 14.4087 18.2627 15.0265 18.0537 15.5671C17.8359 16.126 17.5455 16.6003 17.0727 17.0727C16.6004 17.5455 16.1269 17.8366 15.568 18.0538C15.0272 18.2639 14.4088 18.4072 13.5039 18.4486C12.5972 18.4899 12.3084 18.5 9.99973 18.5C7.69143 18.5 7.40189 18.4899 6.49522 18.4486C5.59049 18.4072 4.97264 18.2639 4.43182 18.0538C3.87312 17.8366 3.39888 17.5455 2.9266 17.0727C2.45396 16.6003 2.16354 16.126 1.94625 15.567C1.73623 15.0265 1.59297 14.4088 1.55135 13.5039C1.51027 12.5973 1.5 12.3085 1.5 10C1.5 7.69154 1.51063 7.40166 1.55118 6.49499C1.59191 5.59045 1.73535 4.9726 1.94608 4.43197C2.16389 3.87309 2.45431 3.39886 2.92713 2.92641C3.39959 2.45377 3.87383 2.16335 4.43288 1.94625C4.97335 1.73605 5.59102 1.59279 6.49593 1.55135ZM9.71444 3.03017C9.54256 3.03009 9.38328 3.03002 9.23522 3.03025V3.02813C7.651 3.0299 7.34712 3.04052 6.56299 3.07594C5.73422 3.11401 5.28425 3.25214 4.98462 3.36901C4.58795 3.52343 4.30461 3.7076 4.0071 4.0051C3.7096 4.3026 3.52507 4.58593 3.37101 4.9826C3.25466 5.28222 3.11618 5.73201 3.07829 6.56076C3.03756 7.4568 3.02941 7.72455 3.02941 9.99441C3.02941 12.2643 3.03756 12.5334 3.07829 13.4295C3.11601 14.2582 3.25466 14.708 3.37101 15.0073C3.52543 15.4041 3.7096 15.6868 4.0071 15.9843C4.30461 16.2818 4.58795 16.4659 4.98462 16.62C5.28443 16.7363 5.73422 16.8748 6.56299 16.9131C7.45904 16.9538 7.72804 16.9626 9.99775 16.9626C12.2673 16.9626 12.5365 16.9538 13.4325 16.9131C14.2613 16.8752 14.7114 16.737 15.0107 16.6202C15.4076 16.4661 15.69 16.2819 15.9875 15.9844C16.285 15.6871 16.4695 15.4047 16.6236 15.008C16.7399 14.7087 16.8784 14.2589 16.9163 13.4302C16.9571 12.5341 16.9659 12.265 16.9659 9.99653C16.9659 7.7281 16.9571 7.45893 16.9163 6.56289C16.8786 5.73414 16.7399 5.28435 16.6236 4.98507C16.4692 4.58841 16.285 4.30507 15.9875 4.00757C15.6902 3.71007 15.4074 3.52591 15.0107 3.37184C14.7111 3.2555 14.2613 3.11702 13.4325 3.07913C12.5363 3.0384 12.2673 3.03025 9.99775 3.03025C9.89966 3.03025 9.80529 3.03021 9.71444 3.03017Z" fill="#fff"/>
<path fill-rule="evenodd" clip-rule="evenodd" d="M14.5349 4.44567C13.9718 4.44567 13.5149 4.90201 13.5149 5.46531C13.5149 6.02844 13.9718 6.48531 14.5349 6.48531C15.098 6.48531 15.5548 6.02844 15.5548 5.46531C15.5548 4.90219 15.098 4.44531 14.5349 4.44531V4.44567Z" fill="#ffffff"/>
<path fill-rule="evenodd" clip-rule="evenodd" d="M5.62634 10.003C5.62634 7.59247 7.58072 5.63803 9.99128 5.63794C12.4019 5.63794 14.3559 7.59241 14.3559 10.003C14.3559 12.4137 12.4021 14.3673 9.99146 14.3673C7.58082 14.3673 5.62634 12.4137 5.62634 10.003ZM12.8259 9.99941C12.8259 8.43452 11.5573 7.16608 9.99258 7.16608C8.4277 7.16608 7.15925 8.43452 7.15925 9.99941C7.15925 11.5641 8.4277 12.8327 9.99258 12.8327C11.5573 12.8327 12.8259 11.5641 12.8259 9.99941Z" fill="#ffffff"/>
</svg>