<svg width="20" height="21" viewBox="0 0 20 21" fill="none" xmlns="http://www.w3.org/2000/svg">
<path d="M18.3642 7.06771C17.5408 7.06771 16.8275 7.082 16.115 7.06351C15.4857 7.04754 15.027 7.28876 14.6657 7.81156C13.155 9.99857 11.6158 12.1662 10.1077 14.3558C9.42461 15.3467 8.5231 15.841 7.31323 15.8216C5.89921 15.7989 4.48518 15.8099 3.07031 15.8216C2.81657 15.8233 2.65274 15.7535 2.53007 15.5283C2.25197 15.0156 1.95707 14.5121 1.61511 13.9111H2.48806C3.38454 13.9111 4.28017 13.9019 5.17665 13.9137C5.9555 13.9238 6.56295 13.5968 6.99985 12.9773C8.23491 11.2291 9.45654 9.47073 10.6765 7.71154C11.0823 7.1257 11.0663 6.53819 10.653 5.95824C10.4832 5.71953 10.3034 5.48755 10.0934 5.20514C10.2371 5.18917 10.3371 5.169 10.437 5.16816C12.5929 5.16647 14.7497 5.17152 16.9056 5.16059C17.161 5.15975 17.3282 5.23203 17.45 5.45141C17.7382 5.97084 18.034 6.48608 18.3625 7.06687L18.3642 7.06771Z" fill="white"/>
<path d="M16.2778 4.11836C15.5208 4.11836 14.8369 4.12676 14.1538 4.11163C14.0101 4.10827 13.858 4.04187 13.7287 3.97043C9.19839 1.48168 3.78593 3.90823 2.64749 8.95382C2.35594 10.2448 2.45004 11.5342 2.84325 12.8336H1.34604C0.318499 9.46653 1.55525 4.96811 5.53436 2.68024C9.29754 0.515929 13.827 1.5237 16.2778 4.11836Z" fill="white"/>
<path d="M17.1548 8.12087C17.6203 8.12087 18.0505 8.10322 18.4764 8.13432C18.5714 8.14104 18.7066 8.30915 18.7344 8.4243C19.1881 10.3012 19.0763 12.1528 18.3059 13.9204C16.9154 17.1101 14.4772 18.9828 11.0164 19.4241C8.34298 19.7645 6.00055 18.9408 3.97234 17.1891C3.90093 17.1278 3.84212 17.053 3.78918 16.9319C4.71255 17.0017 5.63087 16.6815 6.54835 17.1664C11.0996 19.572 16.733 16.6537 17.4287 11.5636C17.5732 10.5079 17.5027 9.47493 17.2321 8.44951C17.2086 8.35874 17.1884 8.26712 17.154 8.12087H17.1548Z" fill="white"/>
<path d="M12.9789 15.8141C12.2687 15.8191 11.698 15.2644 11.7114 14.5827C11.7249 13.9061 12.272 13.3783 12.9621 13.3774C13.658 13.3766 14.1876 13.8977 14.1918 14.5878C14.196 15.2761 13.6673 15.8107 12.9789 15.8149V15.8141Z" fill="white"/>
</svg>