<svg width="32" height="32" viewBox="0 0 32 32" fill="none" xmlns="http://www.w3.org/2000/svg">
<path fill-rule="evenodd" clip-rule="evenodd" d="M16 0C7.16344 0 0 7.16344 0 16C0 24.8366 7.16344 32 16 32C24.8366 32 32 24.8366 32 16C32 7.16344 24.8366 0 16 0ZM12.4828 24.5946C12.3824 23.6862 12.2928 22.2916 12.5236 21.2977C12.7312 20.4015 13.87 15.5878 13.87 15.5878C13.87 15.5878 13.5266 14.8993 13.5266 13.8823C13.5266 12.2841 14.4509 11.0919 15.6046 11.0919C16.5832 11.0919 17.0568 11.8278 17.0568 12.7104C17.0568 13.3401 16.801 14.1686 16.5317 15.0411C16.3793 15.5345 16.2226 16.0421 16.1054 16.5356C15.8353 17.6803 16.6795 18.6118 17.8061 18.6118C19.8474 18.6118 21.4164 16.4582 21.4164 13.35C21.4164 10.599 19.4416 8.6762 16.6198 8.6762C13.3529 8.6762 11.435 11.1285 11.435 13.6623C11.435 14.6495 11.8137 15.7086 12.2888 16.2844C12.3824 16.3984 12.396 16.4976 12.3688 16.6143C12.3171 16.8301 12.2275 17.1939 12.1553 17.4867C12.1062 17.6859 12.0653 17.8522 12.0499 17.9165C11.9997 18.127 11.8829 18.1718 11.6644 18.0713C10.2311 17.4033 9.33534 15.304 9.33534 13.6202C9.33534 9.99605 11.9671 6.66654 16.9225 6.66654C20.9061 6.66654 24.002 9.50722 24.002 13.3025C24.002 17.262 21.506 20.449 18.0436 20.449C16.879 20.449 15.7851 19.8434 15.4105 19.1291C15.4105 19.1291 14.835 21.3221 14.6952 21.8598C14.436 22.8579 13.7356 24.1085 13.2687 24.8716C12.7282 25.8245 12.5196 25.084 12.4828 24.5946Z" fill="white"/>
</svg>
