<svg width="20" height="20" viewBox="0 0 20 20" fill="none" xmlns="http://www.w3.org/2000/svg">
<path fill-rule="evenodd" clip-rule="evenodd" d="M7.94362 12.7482L7.94335 12.748L7.94365 12.7478L7.94366 12.7476L7.94377 12.7477L16.0453 5.05183C16.4009 4.71964 15.9677 4.55766 15.4956 4.85896L5.49672 11.4992L1.17772 10.0802C0.245012 9.77959 0.238314 9.10493 1.38713 8.61989L18.2173 1.78871C18.9859 1.42136 19.7279 1.98305 19.4344 3.22146L16.5682 17.4388C16.3681 18.4491 15.7882 18.6907 14.9847 18.2241L10.6186 14.8286L8.51995 16.9766C8.51333 16.9834 8.50675 16.9901 8.5002 16.9969C8.26548 17.2374 8.07129 17.4364 7.64634 17.4364L7.94362 12.7482Z" fill="#ffffff"/>
</svg>