<svg width="32" height="32" viewBox="0 0 32 32" fill="none" xmlns="http://www.w3.org/2000/svg">
<path fill-rule="evenodd" clip-rule="evenodd" d="M16 0C7.16344 0 0 7.16344 0 16C0 24.8366 7.16344 32 16 32C24.8366 32 32 24.8366 32 16C32 7.16344 24.8366 0 16 0ZM21.2188 10.3914C21.9901 10.9877 22.9505 11.3412 23.9914 11.3412C23.9919 11.3412 23.9959 11.3412 23.9983 11.3409C23.9992 11.3409 23.9998 11.3408 24 11.3406V12.1617V14.3748C22.9818 14.3752 21.9926 14.1707 21.0596 13.7672C20.4597 13.5076 19.9007 13.1731 19.3895 12.7689L19.4049 19.5811C19.3984 21.115 18.8064 22.5563 17.7348 23.6419C16.8627 24.5255 15.7577 25.0875 14.56 25.2693C14.2786 25.312 13.9922 25.334 13.7026 25.334C12.4205 25.334 11.2032 24.9082 10.2075 24.1228C10.0201 23.9749 9.84094 23.8146 9.6703 23.6419C8.50897 22.4654 7.91013 20.8708 8.01095 19.1933C8.08789 17.9164 8.58663 16.6986 9.41809 15.7441C10.5181 14.4811 12.0571 13.78 13.7026 13.78C13.9922 13.78 14.2786 13.8023 14.56 13.845V14.6633V16.9396C14.2932 16.8494 14.0082 16.7997 13.7115 16.7997C12.2081 16.7997 10.9919 18.0569 11.0144 19.599C11.0286 20.5856 11.5544 21.4481 12.33 21.9235C12.6944 22.147 13.1137 22.2853 13.5611 22.3105C13.9117 22.3303 14.2483 22.2802 14.56 22.1747C15.6341 21.811 16.4089 20.7769 16.4089 19.5573L16.4125 14.9956V6.66729H19.386C19.3888 6.96927 19.4187 7.26394 19.4743 7.54949C19.6987 8.70518 20.3343 9.70787 21.2188 10.3914ZM24 11.3404C24 11.3405 24 11.3406 24 11.3406V11.3404Z" fill="white"/>
</svg>
