<svg width="20" height="20" viewBox="0 0 20 20" fill="none" xmlns="http://www.w3.org/2000/svg">
<path d="M16.9925 6.2558C16.0817 6.2558 15.2413 5.97176 14.5665 5.49261C13.7925 4.94332 13.2364 4.13759 13.04 3.20891C12.9914 2.97945 12.9652 2.74266 12.9627 2.5H10.3609V9.19236L10.3578 12.8581C10.3578 13.8381 9.67982 14.6691 8.74002 14.9613C8.46727 15.0461 8.17271 15.0863 7.86599 15.0705C7.47448 15.0502 7.1076 14.939 6.78872 14.7594C6.11014 14.3774 5.65006 13.6843 5.63759 12.8915C5.61795 11.6524 6.68212 10.6422 7.99753 10.6422C8.25718 10.6422 8.50655 10.6821 8.74002 10.7545V8.92534V8.26779C8.49377 8.23346 8.24315 8.21556 7.98974 8.21556C6.54996 8.21556 5.20338 8.77893 4.24082 9.79387C3.5133 10.5609 3.07691 11.5394 3.00958 12.5655C2.92137 13.9135 3.44535 15.1949 4.46151 16.1403C4.61082 16.2791 4.76761 16.4079 4.93157 16.5267C5.80279 17.1579 6.8679 17.5 7.98974 17.5C8.24315 17.5 8.49377 17.4824 8.74002 17.4481C9.78798 17.3019 10.7549 16.8504 11.518 16.1403C12.4556 15.2679 12.9736 14.1098 12.9792 12.8771L12.9658 7.40307C13.4131 7.72789 13.9022 7.99667 14.4271 8.20529C15.2435 8.52952 16.1091 8.69383 17 8.69354V6.91511V6.25521C17.0006 6.2558 16.9931 6.2558 16.9925 6.2558Z" fill="#ffffff"/>
</svg>