<svg width="20" height="20" viewBox="0 0 20 20" fill="none" xmlns="http://www.w3.org/2000/svg">
<path fill-rule="evenodd" clip-rule="evenodd" d="M9.72558 6.49023L9.76677 7.13903L9.08034 7.05958C6.58175 6.75505 4.39891 5.72228 2.54555 3.98775L1.63947 3.12711L1.40608 3.76266C0.911857 5.17941 1.22761 6.6756 2.25725 7.68189C2.8064 8.238 2.68284 8.31745 1.73557 7.98643C1.40608 7.8805 1.11778 7.80106 1.09033 7.84078C0.994228 7.93347 1.32371 9.13837 1.58456 9.61503C1.9415 10.2771 2.66911 10.9259 3.46537 11.3098L4.13807 11.6144L3.34181 11.6276C2.57301 11.6276 2.54555 11.6409 2.62793 11.9189C2.9025 12.7795 3.98705 13.6932 5.19516 14.0904L6.04633 14.3684L5.30499 14.7921C4.20671 15.4012 2.91622 15.7455 1.62574 15.7719C1.00796 15.7852 0.5 15.8381 0.5 15.8779C0.5 16.0103 2.17488 16.7517 3.14961 17.043C6.07379 17.9037 9.54711 17.5329 12.1555 16.0632C14.0089 15.0172 15.8622 12.9384 16.7271 10.9259C17.1939 9.85336 17.6607 7.89374 17.6607 6.95366C17.6607 6.34459 17.7019 6.26514 18.4707 5.53691C18.9237 5.11321 19.3493 4.64978 19.4317 4.51738C19.569 4.2658 19.5552 4.2658 18.8551 4.4909C17.6881 4.88812 17.5234 4.83515 18.1 4.23932C18.5256 3.81562 19.0335 3.04766 19.0335 2.82257C19.0335 2.78285 18.8276 2.84905 18.5942 2.96822C18.3471 3.10063 17.798 3.29924 17.3861 3.4184L16.6448 3.64349L15.9721 3.20655C15.6014 2.96822 15.0797 2.70341 14.8051 2.62396C14.105 2.43859 13.0342 2.46507 12.4027 2.67693C10.6866 3.27275 9.60203 4.80867 9.72558 6.49023Z" fill="#ffffff"/>
</svg>