<svg width="15" height="15" viewBox="0 0 15 15" fill="none" xmlns="http://www.w3.org/2000/svg">
<path fill-rule="evenodd" clip-rule="evenodd" d="M11.6022 3.97391C12.054 4.09712 12.4098 4.46014 12.5306 4.92115C12.75 5.75667 12.75 7.5 12.75 7.5C12.75 7.5 12.75 9.24327 12.5306 10.0789C12.4098 10.5399 12.054 10.9029 11.6022 11.0261C10.7835 11.25 7.5 11.25 7.5 11.25C7.5 11.25 4.21654 11.25 3.39772 11.0261C2.94592 10.9029 2.59012 10.5399 2.46937 10.0789C2.25 9.24327 2.25 7.5 2.25 7.5C2.25 7.5 2.25 5.75667 2.46937 4.92115C2.59012 4.46014 2.94592 4.09712 3.39772 3.97391C4.21654 3.75 7.5 3.75 7.5 3.75C7.5 3.75 10.7835 3.75 11.6022 3.97391ZM6.51233 6.03516V9.29603L9.13733 7.66565L6.51233 6.03516Z" fill="#fff"/>
</svg>