<svg width="32" height="32" viewBox="0 0 32 32" fill="none" xmlns="http://www.w3.org/2000/svg">
<path fill-rule="evenodd" clip-rule="evenodd" d="M16 0C7.16344 0 0 7.16344 0 16C0 24.8366 7.16344 32 16 32C24.8366 32 32 24.8366 32 16C32 7.16344 24.8366 0 16 0ZM24.1788 12.0451C23.9825 11.2911 23.4042 10.6973 22.6698 10.4958C21.339 10.1296 16.0021 10.1296 16.0021 10.1296C16.0021 10.1296 10.6652 10.1296 9.33425 10.4958C8.5999 10.6973 8.02157 11.2911 7.82531 12.0451C7.46875 13.4116 7.46875 16.2629 7.46875 16.2629C7.46875 16.2629 7.46875 19.1141 7.82531 20.4808C8.02157 21.2348 8.5999 21.8285 9.33425 22.0301C10.6652 22.3962 16.0021 22.3962 16.0021 22.3962C16.0021 22.3962 21.339 22.3962 22.6698 22.0301C23.4042 21.8285 23.9825 21.2348 24.1788 20.4808C24.5354 19.1141 24.5354 16.2629 24.5354 16.2629C24.5354 16.2629 24.5354 13.4116 24.1788 12.0451ZM14.399 19.2039V13.8706L18.6657 16.5373L14.399 19.2039Z" fill="white"/>
</svg>
