<svg width="493" height="33" viewBox="0 0 493 33" fill="none" xmlns="http://www.w3.org/2000/svg">
<path fill-rule="evenodd" clip-rule="evenodd" d="M99.5273 17.8924C99.0663 18.0906 99.0175 18.2145 99.3794 18.2029C99.6896 18.1929 100.151 18.0252 100.303 17.8675C100.708 17.4876 100.501 17.4942 99.5273 17.8924Z" fill="#FF9003"/>
<path fill-rule="evenodd" clip-rule="evenodd" d="M357.424 9.52617C357.737 9.60787 357.948 9.78452 357.745 9.94392C357.593 10.1017 357.854 10.2156 358.268 10.2023C359.561 10.1608 359.232 9.37644 357.938 9.38736C357.266 9.40893 357.06 9.44613 357.424 9.52617Z" fill="#FF9003"/>
<path fill-rule="evenodd" clip-rule="evenodd" d="M42.8638 22.0648C42.1952 22.2391 41.9052 23.1045 42.5256 23.0846C42.6808 23.0796 43.1418 22.8814 43.5496 22.6237C44.7222 21.8828 44.4055 21.6178 42.8638 22.0648Z" fill="#FF9003"/>
<path fill-rule="evenodd" clip-rule="evenodd" d="M37.7609 22.9011C37.9713 23.0473 37.7695 23.2678 37.4615 23.3694C37.1017 23.4726 37.3602 23.4644 37.9785 23.3528C39.1124 23.1635 39.1648 23.1924 38.6119 23.8828C38.1093 24.5105 38.11 24.541 38.7714 24.0612C39.1778 23.7424 39.6395 23.5747 39.7975 23.6919C40.0065 23.7769 40.1623 23.8025 40.1594 23.6803C40.153 23.4053 38.53 22.6013 38.0129 22.6179C37.7027 22.6278 37.6022 22.7534 37.7609 22.9011Z" fill="#FF9003"/>
<path fill-rule="evenodd" clip-rule="evenodd" d="M45.0521 22.6977C44.8496 22.8877 44.4891 22.9604 44.2284 22.877C43.967 22.7631 43.7638 22.9225 43.7696 23.1669C43.7761 23.4419 44.0914 23.6458 44.505 23.6325C45.4874 23.601 46.5544 22.7718 45.8765 22.549C45.6151 22.4351 45.2546 22.5078 45.0521 22.6977Z" fill="#FF9003"/>
<path fill-rule="evenodd" clip-rule="evenodd" d="M189.306 11.4957C189.584 12.3123 190.312 12.4725 190.762 11.8159C190.912 11.5665 191.529 11.4244 192.151 11.435C192.772 11.4457 193.497 11.4836 193.756 11.4753C194.066 11.4959 193.812 11.6875 193.301 11.9485C192.328 12.3772 192.38 12.4061 193.618 12.2135C194.443 12.0953 195.273 12.191 195.798 12.5105C196.321 12.7688 196.686 12.8489 196.681 12.6656C196.677 12.4822 197.035 12.3179 197.449 12.3046C197.862 12.2913 198.229 12.4936 198.235 12.738C198.242 13.0435 198.711 13.1508 199.794 13.0243C201.653 12.8424 202.471 12.4492 201.023 12.4651C200.092 12.495 200.092 12.4644 201.068 12.1885C202.456 11.8076 212.229 11.5246 211.875 11.8723C211.723 12.0301 211.985 12.144 212.399 12.1307C213.691 12.0892 213.783 11.5971 212.631 11.0225C211.898 10.6486 210.653 10.5051 208.997 10.5276C207.601 10.5419 206.568 10.6361 206.674 10.755C206.832 10.8723 206.422 11.0078 205.801 11.0277C204.924 11.117 204.87 11.0575 205.434 10.8254C205.844 10.6594 205.994 10.4405 205.785 10.3249C205.627 10.2077 205.112 10.3159 204.651 10.5447C204.243 10.7719 203.521 10.8868 203.105 10.7778C202.689 10.6994 202.328 10.7721 202.333 10.9555C202.337 11.1388 202.027 11.1793 201.714 11.0365C200.359 10.6213 197.462 10.6531 195.144 11.125C194.989 11.1299 195.357 11.3627 195.932 11.6195C196.873 12.0173 196.874 12.0479 195.728 11.7483C194.999 11.5577 194.63 11.2638 194.779 10.9838C194.978 10.6717 194.665 10.5594 193.786 10.5876C193.062 10.6108 192.497 10.7513 192.5 10.904C192.509 11.2707 190.388 11.3081 189.604 10.9664C189.186 10.7963 189.087 10.983 189.306 11.4957ZM200.532 11.3802C201.102 11.423 200.535 11.5329 199.295 11.6033C197.331 11.6969 197.123 11.6424 197.682 11.227C198.089 10.9082 198.552 10.8322 198.919 11.0039C199.233 11.1467 199.961 11.3068 200.532 11.3802Z" fill="#FF9003"/>
<path fill-rule="evenodd" clip-rule="evenodd" d="M212.662 10.1043C212.667 10.3182 214.74 10.4657 214.942 10.2452C215.094 10.118 214.626 10.0108 213.901 10.0034C213.228 9.99444 212.66 10.0432 212.662 10.1043Z" fill="#FF9003"/>
<path fill-rule="evenodd" clip-rule="evenodd" d="M228.953 9.79554C228.75 9.95494 228.441 10.026 228.232 9.94098C227.972 9.88817 227.355 10.0303 226.844 10.2913C225.565 10.9133 225.099 10.9282 225.084 10.2866C225.075 9.88942 224.919 9.86385 224.46 10.1538C223.746 10.6047 222.3 10.7122 222.755 10.2696C222.906 10.0813 222.8 9.9624 222.49 9.97235C222.179 9.98231 221.822 10.1772 221.672 10.4266C221.524 10.7066 220.906 10.8487 220.284 10.777C215.773 10.4019 215.721 10.4035 215.011 11.0072C214.403 11.5465 214.457 11.6365 215.546 11.7545C216.221 11.8551 217.874 11.7409 219.267 11.5434C220.608 11.3475 222.725 11.1573 223.914 11.1191C225.104 11.1115 226.187 10.9545 226.389 10.7645C226.541 10.6068 227.054 10.4374 227.468 10.4241C227.881 10.4109 228.091 10.5265 227.94 10.7147C227.789 10.8725 227.792 11.0252 228.051 11.0475C231.831 11.1403 233.061 10.6422 230.716 9.92248C229.83 9.67571 229.104 9.60725 228.953 9.79554Z" fill="#FF9003"/>
<path fill-rule="evenodd" clip-rule="evenodd" d="M219.03 10.2975C219.497 10.3437 220.221 10.3204 220.581 10.2477C220.889 10.1461 220.526 10.0966 219.647 10.1248C218.82 10.1514 218.511 10.2224 219.03 10.2975Z" fill="#FF9003"/>
<path fill-rule="evenodd" clip-rule="evenodd" d="M245.039 9.52411C244.887 9.68184 244.216 9.76453 243.593 9.66223C242.711 9.56822 242.558 9.63428 242.827 10.0843C243.147 10.4715 243.045 10.5665 242.317 10.4064C240.81 10.1184 237.338 9.92403 235.53 10.0432C233.721 10.1318 232.593 10.5655 234.197 10.5446C234.817 10.5247 234.511 10.718 233.38 11.0294C232.403 11.2748 232.045 11.4698 232.613 11.421C233.181 11.3416 233.907 11.4101 234.271 11.5207C234.585 11.6329 235.151 11.523 235.56 11.2959C236.121 10.9415 237.308 10.8423 240.569 10.8905C241.139 10.9028 241.141 10.9945 240.582 11.4405C239.922 11.9509 239.973 11.9492 241.306 11.4173C242.536 10.9192 243.773 10.696 247.077 10.4065C247.388 10.3966 247.177 10.2505 246.656 10.0837C246.186 9.91534 245.87 9.68088 246.021 9.49259C246.224 9.33319 246.118 9.21429 245.808 9.22424C245.549 9.23254 245.19 9.36637 245.039 9.52411Z" fill="#FF9003"/>
<path fill-rule="evenodd" clip-rule="evenodd" d="M247.574 9.50396C248.148 9.69958 248.985 10.1008 249.458 10.4219C250.3 11.0064 250.352 11.0048 251.678 10.1978C252.495 9.74357 252.797 9.39755 252.383 9.38026C252.021 9.39188 250.571 9.34664 249.121 9.30143C247.05 9.21502 246.74 9.25553 247.574 9.50396Z" fill="#FF9003"/>
<path fill-rule="evenodd" clip-rule="evenodd" d="M304.366 8.56846C304.688 9.0779 305.266 9.45683 305.628 9.44522C306.714 9.41038 306.335 8.68875 305.029 8.18028L303.776 7.70068L304.366 8.56846Z" fill="#FF9003"/>
<path fill-rule="evenodd" clip-rule="evenodd" d="M307.298 7.8629C307.716 8.00239 308.34 8.13524 308.598 8.12695C308.908 8.117 308.75 7.96921 308.333 7.82972C307.915 7.69023 307.343 7.55571 307.033 7.56567C306.774 7.57396 306.881 7.72341 307.298 7.8629Z" fill="#FF9003"/>
<path fill-rule="evenodd" clip-rule="evenodd" d="M299.554 8.56993C299.045 8.95315 299.149 8.98038 300.078 8.85887C301.573 8.62744 301.828 8.46641 300.892 8.2824C300.476 8.20402 299.858 8.31556 299.554 8.56993Z" fill="#FF9003"/>
<path fill-rule="evenodd" clip-rule="evenodd" d="M296.976 8.98901C296.989 9.5084 298.124 9.38028 298.421 8.82039C298.52 8.6032 298.257 8.45871 297.792 8.47364C297.327 8.48857 296.97 8.71404 296.976 8.98901Z" fill="#FF9003"/>
<path fill-rule="evenodd" clip-rule="evenodd" d="M105.416 15.2575C105.574 15.4053 105.837 15.5497 105.992 15.5447C106.095 15.5414 106.195 15.3853 106.191 15.2326C106.187 15.0493 105.926 14.9354 105.615 14.9453C105.357 14.9536 105.256 15.0791 105.416 15.2575Z" fill="#FF9003"/>
<path fill-rule="evenodd" clip-rule="evenodd" d="M282.196 9.76904C282.357 10.0085 282.308 10.1324 281.996 10.0507C281.735 9.96729 281.064 10.05 280.603 10.2177C279.834 10.5175 279.938 10.5447 281.334 10.5305C282.213 10.5023 283.613 10.6103 284.444 10.7365L285.899 10.9956L284.748 10.4516C284.068 10.137 283.541 9.75646 283.537 9.57314C283.532 9.38983 283.167 9.24869 282.702 9.26362C282.185 9.28021 281.981 9.4396 282.196 9.76904Z" fill="#FF9003"/>
<path fill-rule="evenodd" clip-rule="evenodd" d="M189.028 12.8501C188.463 13.0516 188.518 13.1722 189.245 13.3017C189.713 13.3784 190.231 13.3924 190.384 13.2958C190.536 13.1991 190.328 13.1446 189.915 13.1579C189.346 13.1762 189.344 13.1151 189.959 12.8507C190.369 12.6847 190.521 12.527 190.21 12.5369C189.952 12.5452 189.386 12.6857 189.028 12.8501Z" fill="#FF9003"/>
<path fill-rule="evenodd" clip-rule="evenodd" d="M266.135 11.0793C266.091 11.417 266.198 11.5665 266.402 11.4376C266.605 11.2782 266.962 11.0527 267.167 10.9545C267.423 10.8545 267.264 10.6762 266.9 10.5961C266.432 10.5194 266.178 10.711 266.135 11.0793Z" fill="#FF9003"/>
<path fill-rule="evenodd" clip-rule="evenodd" d="M244.776 11.52C244.777 11.5811 245.143 11.7222 245.61 11.799C246.026 11.8773 246.232 11.8402 246.072 11.6618C245.755 11.3662 244.77 11.2756 244.776 11.52Z" fill="#FF9003"/>
<path fill-rule="evenodd" clip-rule="evenodd" d="M294.628 10.3791C294.787 10.5269 295.409 10.5681 295.976 10.4582C297.418 10.1979 297.259 10.0195 295.656 10.071C294.932 10.0942 294.47 10.2313 294.628 10.3791Z" fill="#FF9003"/>
<path fill-rule="evenodd" clip-rule="evenodd" d="M260.563 11.8083C260.412 11.9661 260.519 12.1155 260.777 12.1072C261.088 12.0972 261.343 11.9362 261.339 11.7834C261.335 11.6001 261.228 11.4812 261.125 11.4845C260.97 11.4895 260.714 11.62 260.563 11.8083Z" fill="#FF9003"/>
<path fill-rule="evenodd" clip-rule="evenodd" d="M53.5037 19.0633C53.0427 19.2615 52.9939 19.3854 53.3558 19.3738C53.666 19.3638 54.1278 19.1961 54.2793 19.0384C54.6843 18.6585 54.4775 18.6651 53.5037 19.0633Z" fill="#FF9003"/>
<path fill-rule="evenodd" clip-rule="evenodd" d="M286.172 11.5983C286.589 11.7378 287.213 11.8707 287.472 11.8624C287.782 11.8524 287.623 11.7046 287.206 11.5651C286.789 11.4256 286.216 11.2911 285.906 11.3011C285.648 11.3094 285.755 11.4588 286.172 11.5983Z" fill="#FF9003"/>
<path fill-rule="evenodd" clip-rule="evenodd" d="M292.643 11.727C292.801 11.8748 293.527 11.9432 294.199 11.8911C295.748 11.7497 295.433 11.5458 293.672 11.48C292.947 11.4726 292.483 11.5487 292.643 11.727Z" fill="#FF9003"/>
<path fill-rule="evenodd" clip-rule="evenodd" d="M315.909 10.95C316.068 11.0978 316.743 11.2289 317.364 11.209C318.294 11.1792 318.345 11.1164 317.719 10.8919C316.675 10.5279 315.486 10.5661 315.909 10.95Z" fill="#FF9003"/>
<path fill-rule="evenodd" clip-rule="evenodd" d="M67.485 19.5014C67.4886 19.6542 68.1112 19.726 68.8351 19.7027C69.7658 19.6729 69.9711 19.6051 69.5015 19.4367C68.5629 19.1305 67.4771 19.1654 67.485 19.5014Z" fill="#FF9003"/>
<path fill-rule="evenodd" clip-rule="evenodd" d="M408.99 8.57497C408.586 8.98543 410.303 9.38898 412.788 9.46212C414.755 9.49074 416.523 9.86205 415.024 9.91016C414.662 9.92177 414.561 10.0473 414.721 10.2256C414.879 10.3734 415.554 10.4741 416.175 10.4542C417.001 10.3971 417.052 10.3343 416.429 10.2626C415.91 10.2181 415.646 9.98192 415.846 9.70031C415.996 9.45092 415.836 9.27257 415.526 9.28252C415.216 9.29248 414.953 9.11745 414.947 8.87303C414.94 8.56751 414.472 8.46024 413.543 8.55121C412.716 8.6083 411.474 8.58701 410.695 8.48968C409.917 8.39236 409.141 8.41723 408.99 8.57497Z" fill="#FF9003"/>
<path fill-rule="evenodd" clip-rule="evenodd" d="M72.1502 19.8715C72.1567 20.1465 72.571 20.1638 73.7559 19.9423C76.0215 19.4721 76.0703 19.3483 73.9504 19.4163C72.813 19.4528 72.1444 19.6271 72.1502 19.8715Z" fill="#FF9003"/>
<path fill-rule="evenodd" clip-rule="evenodd" d="M417.438 9.12955C417.96 9.32682 419.205 9.4703 420.343 9.43381C421.946 9.38238 422.258 9.46408 422.009 9.86955C421.759 10.2445 421.916 10.3312 422.584 10.1263C423.098 9.98748 423.923 9.83873 424.386 9.7627C425.469 9.60565 427.368 8.93323 427.363 8.71936C427.358 8.5055 423.796 8.86439 423.388 9.12208C423.236 9.24927 422.769 9.20308 422.403 9.03138C421.985 8.86134 421.311 8.79125 420.9 8.92673C420.437 9.03331 420.229 9.00939 420.38 8.8211C420.532 8.66336 419.754 8.5966 418.617 8.66365C416.86 8.7506 416.706 8.81669 417.438 9.12955Z" fill="#FF9003"/>
<path fill-rule="evenodd" clip-rule="evenodd" d="M21.0924 22.6104C20.686 22.9292 20.895 23.0142 22.0849 23.0066C23.0163 23.0073 23.5304 22.8685 23.422 22.658C23.1519 22.1774 21.7538 22.1306 21.0924 22.6104Z" fill="#FF9003"/>
<path fill-rule="evenodd" clip-rule="evenodd" d="M24.6261 23.2309C23.9648 23.7107 24.3282 23.7602 25.8706 23.3438C26.7453 23.1323 26.7438 23.0712 26.0156 22.9111C25.5999 22.8328 24.9306 22.9765 24.6261 23.2309Z" fill="#FF9003"/>
<path d="M30.8478 23.7651C31.1334 23.7559 31.3616 23.6117 31.3576 23.4429C31.3537 23.2742 31.1189 23.1448 30.8334 23.154C30.5478 23.1632 30.3196 23.3074 30.3236 23.4761C30.3275 23.6449 30.5622 23.7742 30.8478 23.7651Z" fill="#FF9003"/>
<path fill-rule="evenodd" clip-rule="evenodd" d="M26.504 23.8738C26.3518 24.001 26.8185 24.0471 27.4885 23.9339C28.211 23.8496 28.7768 23.7091 28.7754 23.648C28.7696 23.4036 26.756 23.5905 26.504 23.8738Z" fill="#FF9003"/>
<path fill-rule="evenodd" clip-rule="evenodd" d="M8.52393 25.0011C8.88802 25.0811 9.35263 25.0356 9.50558 24.939C9.71023 24.8407 9.39785 24.759 8.82982 24.8078C8.26108 24.826 8.10813 24.9227 8.52393 25.0011Z" fill="#FF9003"/>
<path fill-rule="evenodd" clip-rule="evenodd" d="M478.629 12.6698C479.32 13.4426 480.772 13.5489 480.754 12.8157C480.749 12.5712 480.487 12.4573 480.231 12.5573C479.923 12.6894 479.301 12.6177 478.83 12.3882C478.045 12.0465 478.046 12.077 478.629 12.6698Z" fill="#FF9003"/>
<path fill-rule="evenodd" clip-rule="evenodd" d="M292.032 18.7484C292.036 18.9012 292.298 19.0456 292.608 19.0357C292.867 19.0274 292.967 18.8713 292.808 18.7235C292.649 18.5452 292.387 18.4313 292.232 18.4362C292.129 18.4396 292.028 18.5651 292.032 18.7484Z" fill="#FF9003"/>
<path fill-rule="evenodd" clip-rule="evenodd" d="M482.576 13.2463C482.424 13.4041 482.635 13.5502 483.1 13.5353C483.565 13.5203 483.769 13.3609 483.61 13.2132C483.45 13.0348 483.189 12.9209 483.086 12.9242C482.982 12.9275 482.727 13.058 482.576 13.2463Z" fill="#FF9003"/>
<path fill-rule="evenodd" clip-rule="evenodd" d="M351.772 17.7489C351.621 17.9066 351.676 18.0577 351.986 18.0477C352.245 18.0394 352.655 17.8734 352.806 17.7157C352.957 17.5274 352.903 17.4068 352.592 17.4168C352.334 17.4251 351.923 17.5606 351.772 17.7489Z" fill="#FF9003"/>
<path fill-rule="evenodd" clip-rule="evenodd" d="M485.168 13.469C485.017 13.6573 485.225 13.6812 485.636 13.5763C486.099 13.4697 486.463 13.5192 486.467 13.7025C486.471 13.8858 486.682 14.0319 486.992 14.022C487.251 14.0137 487.349 13.7965 487.188 13.557C486.814 13.0493 485.623 12.9958 485.168 13.469Z" fill="#FF9003"/>
<path fill-rule="evenodd" clip-rule="evenodd" d="M488.791 13.475C487.92 13.8699 487.921 13.9004 488.753 14.0572C489.273 14.1628 489.996 14.1091 490.406 13.9736C491.074 13.7381 491.071 13.6465 490.444 13.3609C489.92 13.1025 489.507 13.1157 488.791 13.475Z" fill="#FF9003"/>
<path fill-rule="evenodd" clip-rule="evenodd" d="M490.785 14.6646C490.791 14.909 491.002 15.1163 491.261 15.108C491.468 15.1013 491.672 14.9725 491.668 14.8197C491.664 14.667 492.073 14.4398 492.589 14.3622C493.155 14.2522 492.999 14.1961 492.119 14.1937C491.239 14.1914 490.778 14.3591 490.785 14.6646Z" fill="#FF9003"/>
<path fill-rule="evenodd" clip-rule="evenodd" d="M169.083 11.8388C169.447 11.9189 170.169 11.8345 170.631 11.6668C171.811 11.2315 171.966 11.2265 171.51 11.6386C171.257 11.8914 171.982 11.8987 173.943 11.6829C178.948 11.0942 179 11.0926 178.701 11.5608C178.551 11.8102 178.245 12.0035 177.935 12.0134C177.677 12.0217 177.576 12.1473 177.735 12.2951C177.893 12.4428 177.691 12.6328 177.28 12.7683C176.869 12.8732 176.402 12.827 176.243 12.6792C176.032 12.5025 175.357 12.4019 174.685 12.4235C173.754 12.4533 173.499 12.5838 173.713 12.9133C174.034 13.3616 172.695 13.6186 172.219 13.1753C172.113 13.0564 172.062 13.1191 172.171 13.3297C172.389 13.8119 170.43 14.0888 169.025 13.767C168.088 13.5524 167.625 13.6284 166.504 14.3676C165.79 14.8186 164.917 15.1217 164.657 15.0384C164.344 14.9567 164.139 15.0244 164.143 15.1772C164.147 15.3605 164.306 15.5083 164.461 15.5033C165.081 15.4834 167.744 14.3278 167.739 14.0834C167.735 13.9306 168.1 14.0412 168.571 14.2707C169.411 14.7636 173.189 14.8258 172.661 14.3535C172.29 13.9985 173.785 13.7671 175.392 13.8684C176.273 13.9319 176.431 14.0491 175.97 14.2473C175.56 14.4134 175.923 14.4629 176.957 14.4297C178.818 14.3394 179.84 13.7869 178.082 13.8433L176.996 13.8781L178.01 12.9895C179.024 12.1008 183.182 10.7138 183.195 11.2637C183.199 11.4165 183.564 11.5271 183.977 11.5138C184.391 11.5006 184.749 11.3362 184.746 11.1834C184.741 11.0001 185.1 10.8663 185.566 10.8513C185.979 10.8381 186.189 10.9537 186.038 11.1419C185.734 11.4269 185.995 11.5102 187.806 11.5133C188.221 11.5306 188.639 11.7311 188.8 11.9706C188.961 12.21 188.86 12.3356 188.651 12.22C188.389 12.1061 187.976 12.1194 187.669 12.2821C186.44 12.8413 185.409 12.9661 185.5 12.474C185.494 12.199 185.229 11.9323 184.917 11.8812C184.553 11.8011 184.245 11.9027 184.249 12.086C184.254 12.2693 184.464 12.4155 184.723 12.4072C185.033 12.3972 185.143 12.6689 185.047 13.0083C184.857 13.7176 185.74 13.8727 189.098 13.6427C191.785 13.4953 192.658 13.1921 191.51 12.8009C190.884 12.5764 190.83 12.4864 191.391 12.1321C191.952 11.7778 192.056 11.805 191.91 12.1766C191.813 12.4854 192.283 12.6538 193.319 12.6817C194.199 12.7147 195.082 12.8392 195.291 12.9548C195.501 13.0704 194.934 13.1497 194.052 13.0863C192.861 13.0328 192.501 13.1055 192.817 13.3399C193.028 13.5472 193.496 13.6239 193.856 13.5206C194.216 13.4479 194.682 13.4635 194.944 13.608C195.207 13.7525 196.348 13.8993 197.489 13.985C199.043 14.088 199.353 14.0475 198.778 13.8213C198.256 13.624 198.202 13.5035 198.615 13.4902C198.977 13.4786 199.501 13.737 199.819 14.0631C200.137 14.3892 200.661 14.6476 200.971 14.6376C201.436 14.6227 201.434 14.5311 200.962 14.271C199.914 13.6932 200.217 13.4082 201.773 13.5418C202.966 13.6564 203.017 13.6242 202.131 13.3774C201.246 13.1306 201.349 13.1273 202.645 13.2386C203.527 13.302 204.718 13.3556 205.338 13.3357C206.011 13.3141 206.376 13.4553 206.174 13.6452C206.023 13.8335 206.127 13.8607 206.486 13.7269C207.408 13.3304 206.571 12.9292 204.916 12.9823C203.934 13.0138 203.413 12.8776 203.406 12.5721C203.398 12.236 203.656 12.1972 204.747 12.3762C206.462 12.7187 206.669 12.712 206.193 12.2687C205.981 12.0615 206.032 12.0292 206.448 12.1382C206.762 12.2504 206.922 12.4899 206.771 12.6476C206.568 12.807 206.829 12.9209 207.294 12.906C207.76 12.8911 208.016 12.7911 207.909 12.6417C207.751 12.5244 208.163 12.4195 208.835 12.3979C209.455 12.378 209.923 12.4853 209.824 12.6719C209.474 13.1724 212.935 12.939 213.647 12.3964C214.258 11.9793 214.31 11.9777 214.113 12.412C213.915 12.7853 214.124 12.8703 215.103 12.7166C216.393 12.5529 216.87 13.0268 215.739 13.3383C215.379 13.4416 216.002 13.5133 217.087 13.4785C219.001 13.4477 219.104 13.4138 218.111 13.0176C217.171 12.6197 217.222 12.5875 218.622 12.726C219.711 12.8439 220.021 12.8034 219.756 12.5367C219.545 12.3601 219.645 12.204 219.955 12.194C220.265 12.1841 220.631 12.3558 220.792 12.5952C220.953 12.8347 221.527 13.0609 222.098 13.1343C222.618 13.2093 222.978 13.1366 222.768 12.9905C222.609 12.8427 222.864 12.6816 223.277 12.6684C224.31 12.5741 224.619 12.503 225.853 12.1577C226.418 11.9867 227.505 12.013 228.44 12.1664C230.415 12.5311 231.863 12.5152 231.855 12.1791C231.852 12.0264 233.042 12.0188 234.442 12.1573C235.946 12.2925 237.038 12.5326 237.044 12.7771C237.049 12.9909 236.795 13.1825 236.484 13.1925C236.226 13.2008 236.126 13.3568 236.285 13.5352C236.497 13.7118 236.292 13.8102 235.773 13.7656C235.255 13.7211 234.741 13.8599 234.642 14.0465C234.543 14.2637 234.907 14.3438 235.733 14.2256C236.506 14.109 237.118 13.7531 237.263 13.2898C237.46 12.886 237.918 12.535 238.28 12.5234C238.693 12.5101 239.104 12.3746 239.204 12.2185C239.451 11.7214 240.97 12.5288 241.353 13.4032C241.679 14.0654 241.578 14.1603 240.748 14.0647C240.177 13.9913 239.3 14.1111 238.787 14.311C238.019 14.6414 238.071 14.6398 239.205 14.4505C239.978 14.334 240.755 14.3702 240.914 14.5485C241.126 14.7252 241.75 14.8581 242.318 14.8398C243.146 14.8133 243.195 14.7199 242.667 14.2477C241.821 13.4799 242.888 12.6812 244.801 12.6199C245.525 12.5966 246.35 12.4784 246.503 12.3818C246.707 12.253 247.687 12.0992 248.771 12.0033L250.734 11.8486L249.039 12.3922C246.677 13.1407 247.352 13.2718 250.286 12.6273C251.677 12.3381 252.602 12.0944 252.292 12.1043C252.033 12.0821 252.338 11.8583 252.952 11.5634C254.232 11.0025 254.427 10.4765 253.289 10.513C252.255 10.5462 252.3 10.239 253.426 9.71366C254.448 9.19165 256.567 9.06252 257.663 9.45542C258.132 9.6238 258.545 9.57999 258.747 9.35949C258.949 9.13899 259.362 9.12572 259.987 9.28913C260.456 9.42696 261.854 9.44326 263.143 9.27957C264.381 9.11755 265.415 9.08437 265.418 9.20658C265.425 9.51211 270.538 9.07292 272.234 8.621C273.314 8.34174 273.885 8.38459 274.824 8.72136C276.286 9.28596 277.527 9.24613 278.341 8.6391C278.747 8.3203 279.211 8.24427 279.836 8.40768C280.305 8.54551 281.805 8.55851 283.2 8.45262C284.749 8.31119 285.992 8.36305 286.463 8.59254C287.091 8.87816 287.349 8.83931 287.856 8.39499C288.312 8.01343 288.673 7.97126 289.093 8.20241C289.407 8.37577 291.221 8.47047 293.134 8.40909C295.047 8.34771 296.392 8.36568 296.033 8.46895C295.724 8.54001 295.574 8.75884 295.734 8.96773C295.949 9.29717 295.536 9.341 293.773 9.18353C290.559 8.91976 290.094 8.96523 290.468 9.47301C290.629 9.71245 290.531 9.92964 290.272 9.93793C289.962 9.94789 289.752 9.80176 289.748 9.649C289.743 9.43513 289.433 9.44508 288.714 9.68217C287.944 9.95148 287.686 9.95978 287.679 9.68481C287.673 9.44039 287.051 9.3992 285.865 9.55956C284.575 9.72324 284.057 9.67871 284.05 9.37319C284.045 9.15932 283.729 8.92488 283.416 8.84318C282.533 8.68806 280.835 9.10941 280.896 9.47438C280.952 9.65604 280.386 9.79649 279.663 9.85026C278.319 9.92395 277.897 9.57062 279.029 9.28971C279.388 9.18644 279.283 9.09807 278.766 9.11466C278.248 9.10069 277.839 9.2973 277.844 9.51117C277.85 9.78614 277.284 9.89605 276.092 9.84255C275.16 9.8113 274.18 9.93447 274.029 10.1228C273.827 10.3127 274.037 10.4588 274.502 10.4439C274.968 10.429 275.177 10.5445 275.027 10.7328C274.521 11.2383 273.846 11.1376 273.469 10.5076C273.037 9.72653 272.154 9.60197 269.835 9.98215C268.546 10.2069 267.459 10.1807 266.575 9.99502C265.535 9.75323 265.224 9.76318 265.025 10.0753C264.876 10.3553 264.566 10.3652 263.732 10.1168C263.42 10.0351 263.133 9.95251 262.918 9.8906C262.703 9.82873 262.56 9.78748 262.534 9.78831C262.534 9.76866 262.365 9.86824 262.109 10.0194C261.967 10.1032 261.797 10.203 261.615 10.307C261.105 10.6292 260.18 10.9034 259.56 10.9233C258.061 10.9714 256.838 11.775 257.776 12.0507C258.089 12.163 258.552 12.0564 258.805 11.8342C259.007 11.6137 259.314 11.4815 259.472 11.5682C259.628 11.6244 259.582 11.8705 259.381 12.091C258.874 12.5353 256.397 12.8288 256.542 12.396C256.538 12.2127 256.011 11.8321 255.228 11.5515C254.131 11.0975 253.975 11.0719 254.244 11.4914C254.405 11.7308 254.412 12.0363 254.207 12.1041C254.001 12.1718 254.156 12.1668 254.466 12.1263C254.826 12.0536 255.401 12.2798 255.667 12.6076C256.197 13.1104 256.56 13.1599 258.572 12.9119C260.481 12.6977 260.844 12.7167 260.854 13.1444C260.864 13.5721 260.968 13.5994 261.581 13.2434C261.989 12.9857 262.087 12.7685 261.774 12.6562C261.513 12.5423 262.025 12.3119 262.899 12.0698C264.236 11.7517 265.064 11.7557 266.934 12.0626C269.428 12.5024 271.597 12.3105 270.136 11.7765C269.614 11.6097 270.027 11.5659 271.426 11.6433C275.052 11.8022 275.468 11.9111 274.707 12.5165C274.249 12.8675 274.455 12.8303 275.428 12.4016C276.502 11.8779 276.653 11.6591 276.179 11.3379C275.654 10.9879 275.705 10.9557 276.278 11.1208C276.643 11.2619 277.108 11.2164 277.31 11.0265C277.512 10.806 278.649 10.7389 280.462 10.8336C282.948 10.9373 283.156 10.9918 281.868 11.2166C281.095 11.3637 280.584 11.6247 280.743 11.7724C280.902 11.9508 280.802 12.0763 280.543 12.0846C280.233 12.0946 279.972 11.9806 279.967 11.7973C279.964 11.6446 279.44 11.3556 278.815 11.1922C277.669 10.8621 277.669 10.8926 278.405 11.3888C278.826 11.6811 278.934 11.8611 278.621 11.7488C277.839 11.4987 276.669 12.3618 277.043 12.8696C277.256 13.1074 277.359 13.0735 277.35 12.7069C277.362 12.5078 277.365 12.3736 277.432 12.2956C277.573 12.1334 277.994 12.2137 279.362 12.4588C280.297 12.6123 280.873 12.8996 280.671 13.0895C280.52 13.2778 280.624 13.305 280.983 13.1712C281.29 13.0391 281.44 12.8202 281.282 12.703C281.07 12.4652 283.387 11.9934 285.042 11.9403C285.714 11.9187 285.664 12.012 284.846 12.4357C283.875 12.9256 283.875 12.9561 284.904 12.7091C287.271 12.1439 287.788 12.0968 288.936 12.5186C290.032 12.9115 290.187 12.9065 290.177 12.4788C290.17 12.2038 289.699 11.9438 289.179 11.8687C287.571 11.6757 288.129 11.2297 289.941 11.2633C291.338 11.2491 291.652 11.3919 291.454 11.7957C291.359 12.1351 291.519 12.344 291.933 12.3612C294.677 12.4261 296.02 12.3219 296.014 12.0469C296.009 11.8636 296.164 11.8586 296.428 12.0642C296.85 12.387 301.091 12.3121 301.962 11.9478C302.269 11.8156 302.839 11.8279 303.257 11.9979C304.664 12.442 305.021 12.2165 303.818 11.6742C302.667 11.1302 300.546 11.1677 300.249 11.7275C300.149 11.8836 299.634 11.9613 299.063 11.8879C298.492 11.8145 298.124 11.5817 298.273 11.3323C298.424 11.1135 298.108 10.879 297.641 10.8328C297.173 10.7561 297.482 10.685 298.412 10.6246C299.291 10.5964 300.225 10.6888 300.383 10.8365C300.594 11.0132 300.958 11.0627 301.213 10.9322C301.47 10.8323 301.569 10.6456 301.463 10.5267C301.305 10.4095 301.922 10.2674 302.749 10.2103C303.627 10.1516 304.198 10.225 304.046 10.3827C303.895 10.5404 304.209 10.7138 304.78 10.7872C305.351 10.8606 305.66 10.7896 305.501 10.6418C305.025 10.1984 306.881 9.89428 307.872 10.2294C308.601 10.4506 308.963 10.4389 309.37 10.1202C309.675 9.89633 309.772 9.61804 309.562 9.50247C309.352 9.3869 309.559 9.38026 310.079 9.48588C311.015 9.66989 311.286 10.181 310.458 10.2075C310.2 10.2158 309.944 10.3463 309.949 10.5296C309.96 11.0185 311.87 10.8349 312.22 10.3039C312.369 10.0545 312.209 9.84561 311.847 9.85722C311.433 9.87049 311.482 9.74662 311.995 9.54672C312.405 9.38069 312.974 9.36245 313.287 9.4747C313.549 9.61917 314.484 9.77262 315.314 9.86829L316.819 10.034L315.382 10.5388C314.612 10.8081 313.634 11.0229 313.272 11.0345C312.858 11.0478 312.552 11.2105 312.555 11.3633C312.56 11.5466 313.078 11.5911 313.799 11.4457C314.469 11.3325 315.452 11.3315 316.025 11.4966C316.546 11.6327 318.511 11.6002 320.474 11.4455C323.211 11.2048 324.143 11.2361 324.824 11.5812C325.452 11.8973 325.555 11.894 325.238 11.5984C324.868 11.274 325.125 11.2046 326.473 11.3142C327.51 11.4033 328.026 11.3561 327.815 11.1794C327.656 11.0011 327.136 10.8955 326.722 10.9087C326.309 10.922 325.995 10.7792 325.99 10.5959C325.987 10.4431 325.779 10.3887 325.471 10.4903C325.214 10.5902 324.956 10.5985 324.952 10.4458C324.944 10.1097 321.015 10.2663 320.455 10.6206C320.251 10.78 320.511 10.8329 321.232 10.6874C321.851 10.5759 322.369 10.6203 322.373 10.7731C322.386 11.323 320.31 11.0839 318.949 10.3938C318.058 9.93312 317.793 9.66645 318.31 9.64986C318.672 9.63825 319.296 9.77112 319.663 9.97338C320.135 10.2334 320.289 10.1979 320.28 9.80071C320.273 9.52574 319.694 9.08569 318.912 8.8356C317.868 8.44104 317.505 8.42209 316.996 8.77476C316.538 9.09521 316.539 9.12576 317.052 8.95641C317.359 8.82424 317.671 8.87541 317.675 9.02817C317.679 9.21149 317.321 9.37585 316.907 9.38912C316.493 9.40239 316.128 9.26125 316.123 9.07794C316.119 8.89462 315.29 8.82949 314.05 8.89986C312.965 8.9958 311.878 8.96956 311.721 8.88288C311.512 8.79785 310.529 8.79883 309.445 8.92532C308.361 9.05182 307.326 9.02389 307.166 8.84555C306.956 8.69943 307.882 8.45567 309.275 8.28867C310.771 8.11835 311.755 8.14795 311.863 8.32794C311.971 8.50794 312.281 8.52855 312.59 8.42693C313.461 8.06266 319.353 7.81242 320.395 8.08477C320.864 8.25315 321.278 8.2399 321.275 8.11769C321.272 7.96493 324.114 7.81259 327.631 7.76089L328.001 7.7523C331.328 7.67494 334.426 7.60293 334.974 7.55587C338.693 7.28367 345.368 7.31407 344.237 7.62554C343.672 7.766 344.449 7.83279 346.207 7.77639C347.81 7.72497 349.415 7.76518 349.781 7.90633C350.354 8.07139 352.474 8.03396 358.261 7.66485C359.397 7.56725 359.762 7.67782 359.666 8.01722C359.519 8.35827 359.828 8.28721 360.697 7.83128C361.463 7.40921 361.617 7.37371 361.211 7.72305C360.653 8.16904 360.707 8.25901 361.642 8.41246C362.265 8.51477 363.039 8.42877 363.345 8.2355C363.753 7.97781 363.647 7.88948 363.027 7.90939C362.562 7.92432 362.144 7.78483 362.14 7.60152C362.133 7.296 364.206 7.44351 364.732 7.8241C365.101 8.08746 368.359 8.01349 368.094 7.74682C367.936 7.62958 368.815 7.60138 370.059 7.68378C374.568 8.02829 380.31 7.96639 379.887 7.58248C379.622 7.3158 379.726 7.31245 380.3 7.53862C380.718 7.70867 382.014 7.7894 383.255 7.74959C384.443 7.68088 385.427 7.71048 385.429 7.80213C385.431 7.89379 386.882 7.96957 388.692 7.94206C390.451 7.91621 393.297 7.94716 395.006 7.98407C396.485 8.04246 398.196 8.04764 399.166 8.05058C399.317 8.05103 399.45 8.05144 399.561 8.05197C400.336 8.02709 400.96 8.1294 400.963 8.28216C400.967 8.43492 401.226 8.45716 401.534 8.35555C402.303 8.02514 405.662 7.85623 405.927 8.12291C406.086 8.27069 406.707 8.28132 407.325 8.16975C408.252 7.98713 408.461 8.07216 408.476 8.71376C408.487 9.17205 408.285 9.36199 408.023 9.21752C407.76 9.07305 407.039 9.21849 406.272 9.57945C405.556 9.93875 404.632 10.2436 404.167 10.2891C403.702 10.3345 403.911 10.4196 404.638 10.5186C405.366 10.6481 406.141 10.6232 406.398 10.5538C406.706 10.4522 407.428 10.3373 407.996 10.2885C408.823 10.262 409.085 10.3759 408.887 10.7797C408.742 11.2124 408.899 11.2991 409.516 11.1264C409.979 11.0198 410.181 10.7993 410.023 10.6516C409.864 10.5038 410.016 10.3766 410.275 10.3683C410.585 10.3583 410.847 10.5028 410.851 10.6861C410.856 10.8694 411.322 10.9156 411.94 10.7735C412.764 10.5942 412.919 10.6198 412.667 10.903C412.415 11.1863 412.469 11.2457 412.827 11.0814C413.801 10.6832 413.532 10.2638 412.29 10.273C411.618 10.2946 411.409 10.2096 411.769 10.1063C412.078 10.0353 413.427 10.206 414.624 10.5039C416.915 11.1031 419.918 11.1902 420.372 10.6864C420.524 10.5592 421.247 10.4749 421.972 10.5128C422.646 10.5829 423.116 10.7512 422.964 10.909C422.813 11.0667 423.951 11.0608 425.449 10.9516C429.374 10.6116 431.184 10.5841 431.813 10.9308C432.128 11.1042 432.642 10.9654 433.251 10.4872C433.707 10.0751 434.066 9.94128 434.02 10.1874C433.925 10.5267 434.807 10.6208 437.963 10.6112C440.239 10.5993 442.416 10.7435 442.886 10.9425C443.514 11.2281 443.565 11.1959 443.247 10.8697C442.878 10.5758 443.031 10.5098 443.862 10.636C444.434 10.7399 445.053 10.6589 445.204 10.5012C445.559 10.184 443.379 9.8871 440.845 9.93783C439.965 9.93548 439.134 9.80927 438.924 9.66315C438.764 9.48481 438.867 9.45092 439.18 9.56318C439.545 9.67378 439.803 9.63491 439.798 9.4516C439.785 8.90166 438.8 8.81097 438.347 9.34529C437.943 9.78629 437.84 9.78961 437.106 9.3851C436.373 9.01114 436.217 8.98558 435.968 9.39105C435.819 9.64045 435.462 9.86593 435.151 9.87588C434.841 9.88583 434.734 9.7364 434.936 9.5159C435.189 9.26319 435.033 9.2376 434.313 9.44414C433.388 9.71842 427.96 9.92317 427.542 9.72258C427.437 9.66479 427.481 9.35758 427.682 9.07597C427.88 8.73326 428.343 8.59612 429.07 8.72566C429.641 8.79907 432.281 8.83668 434.971 8.81152C439.005 8.74323 439.938 8.80502 440.622 9.2723C441.201 9.68178 441.512 9.70241 441.66 9.42246C442.011 8.92201 443.666 8.89947 444.556 9.36011C445.448 9.88185 447.514 9.72383 448.121 9.12343C448.526 8.74353 448.63 8.74021 449.052 9.09357C449.316 9.32969 450.097 9.51867 450.77 9.52766C451.391 9.5383 451.912 9.70504 451.865 9.89001C451.817 10.0444 452.081 10.2806 452.497 10.3589C453.017 10.4646 453.272 10.3035 453.262 9.87577C453.25 9.38693 453.455 9.28863 454.182 9.41817C454.651 9.556 455.791 9.64171 456.619 9.64572C457.5 9.67863 458.173 9.71817 458.174 9.74872C458.175 9.77927 459.056 9.84273 460.091 9.8401C465.525 9.87978 468.018 10.289 466.116 10.8087C465.756 10.9119 465.965 10.997 466.637 10.9754C467.258 10.986 467.773 10.8472 467.768 10.6639C467.765 10.5112 468.125 10.4384 468.541 10.5168C468.957 10.6258 469.219 10.7702 469.119 10.8958C469.018 10.9907 469.949 10.9914 471.24 10.8888C472.842 10.7763 473.723 10.8398 474.039 11.1048C474.409 11.4292 474.511 11.3648 474.552 10.9049C474.544 10.5688 474.697 10.4722 474.857 10.6811C474.965 10.8611 475.797 11.0178 476.676 10.9896C477.503 10.9631 478.541 11.1132 478.909 11.346C479.328 11.5772 480.47 11.6934 481.502 11.5992C483.362 11.4783 483.936 11.674 484.581 12.6928C484.904 13.2328 484.852 13.2345 483.6 12.7855C482.921 12.532 481.674 12.2969 480.897 12.2607C480.068 12.2261 479.03 12.1065 478.511 12.0009C477.367 11.7624 475.048 12.1732 475.058 12.6009C475.062 12.7842 475.375 12.8659 475.786 12.761C476.198 12.6561 476.82 12.7278 477.136 12.9623C477.609 13.2834 477.507 13.3173 476.677 13.2216C476.054 13.1499 475.59 13.2259 475.595 13.4398C475.599 13.6231 476.327 13.7526 477.206 13.7244C478.033 13.6979 478.656 13.8002 478.453 13.9596C478.302 14.1173 478.463 14.3568 478.776 14.469C479.141 14.5796 479.243 14.5458 479.031 14.3385C478.872 14.1602 478.919 13.9446 479.175 13.8447C479.431 13.7142 479.846 13.7926 480.006 13.9709C480.216 14.117 480.684 14.1938 481.044 14.0905C481.404 14.0178 481.871 14.0945 482.032 14.334C482.193 14.5734 482.766 14.7079 483.334 14.6591C483.902 14.6409 484.209 14.4782 484.103 14.3593C483.945 14.242 484.2 14.1115 484.614 14.0982C485.028 14.085 485.496 14.1923 485.655 14.34C486.077 14.724 484.593 15.4137 483.811 15.1636C483.291 15.0274 483.291 15.0579 483.764 15.3485C484.289 15.668 484.599 15.6581 485.364 15.2055C486.386 14.6224 488.556 14.5221 488.207 15.0531C488.108 15.2703 488.375 15.5981 488.845 15.797C490.676 16.625 489.194 17.4369 486.547 17.0632C485.819 16.9337 484.523 16.8224 483.59 16.7606C482.71 16.7277 481.672 16.6081 481.359 16.4958C481.046 16.3836 479.595 16.2773 478.094 16.2643C476.592 16.2207 475.347 16.0772 475.24 15.9278C475.133 15.7783 474.769 15.7288 474.461 15.8305C474.101 15.9032 472.29 15.9001 470.476 15.7749C468.837 15.6663 465.877 15.482 463.425 15.3293L462.444 15.2682L461.481 15.2064C459.076 15.0523 456.173 14.8662 454.67 14.7532C452.96 14.6552 448.868 14.4502 445.554 14.3425C442.291 14.2026 439.338 14.0527 439.076 13.9388C438.451 13.7449 433.014 13.5829 427.996 13.6216C420.96 13.6639 416.094 13.5755 415.572 13.4087C415.259 13.2965 415.15 13.0554 415.353 12.8655C415.503 12.6466 415.298 12.7449 414.841 13.0959C414.434 13.4147 413.715 13.6212 413.247 13.5445C412.207 13.3333 412.247 12.8428 413.381 12.623C414.05 12.4792 413.997 12.4503 413.169 12.4463C412.549 12.4662 411.932 12.6389 411.782 12.8577C411.583 13.1699 410.654 13.2914 407.963 13.2554C407.099 13.2556 406.215 13.2501 405.461 13.2455C404.543 13.2399 403.82 13.2355 403.564 13.2437C403.046 13.2297 402.628 13.0597 402.623 12.8458C402.618 12.6319 402.355 12.4569 402.045 12.4669C401.787 12.4751 401.686 12.6007 401.846 12.779C402.057 12.9557 401.179 13.045 399.418 12.9792C397.917 12.9356 396.364 12.9243 396.055 12.9648C394.815 13.0657 392.023 13.1248 390.469 13.0523C389.818 13.0252 388.977 13.0042 388.395 12.9897C388.235 12.9857 388.095 12.9822 387.983 12.9792C387.465 12.9652 387.203 12.7902 387.354 12.6325C387.505 12.4442 387.295 12.3286 386.882 12.3419C386.364 12.3584 386.214 12.5467 386.375 12.8167C386.588 13.0545 386.438 13.2734 386.128 13.2833C385.817 13.2933 385.557 13.2099 385.553 13.0572C385.55 12.935 382.704 12.904 379.186 12.9557C375.721 13.0363 371.841 13.069 370.547 13.0188C369.252 12.9686 365.784 12.927 362.783 12.9316C359.782 12.9362 357.192 12.8052 357.032 12.6269C356.769 12.4213 356.562 12.428 356.36 12.6485C356.006 12.9962 355.437 12.9838 352.529 12.5573C351.542 12.4055 350.974 12.4238 351.133 12.6021C351.344 12.7483 351.191 12.8755 350.933 12.8837C350.623 12.8937 350.36 12.7492 350.356 12.5659C350.35 12.3215 350.144 12.3281 349.684 12.5875C349.275 12.7841 347.416 12.9354 344.88 12.9251C342.655 12.9353 338.93 12.9631 336.655 13.0055C332.776 13.0994 328.106 12.546 328.093 11.9961C328.09 11.8739 327.674 11.7954 327.209 11.8104C326.624 11.8495 326.626 11.9616 327.217 12.1464C327.686 12.2843 328.106 12.546 328.109 12.6682C328.118 13.0654 314.256 13.2655 313.367 12.866C312.949 12.696 312.43 12.6209 312.122 12.7225C311.865 12.8225 310.473 13.02 309.027 13.1581C306.755 13.3533 306.444 13.3327 306.691 12.8356C306.939 12.369 306.887 12.3707 306.227 12.8811C305.718 13.2643 305.358 13.337 305.094 13.1314C304.936 12.9836 304.469 12.9375 304.161 13.0697C303.239 13.4661 290.935 13.8915 290.565 13.567C290.405 13.3887 289.941 13.4342 289.48 13.663C288.919 13.9867 288.66 13.995 288.291 13.7011C288.079 13.4939 287.768 13.4427 287.615 13.5699C287.363 13.8532 281.262 14.049 278.361 13.8974C277.584 13.8612 277.068 13.9083 277.227 14.0561C277.333 14.175 275.887 14.2826 273.971 14.2523C270.038 14.2256 267.246 14.3152 264.406 14.5592C263.219 14.689 262.441 14.6223 262.436 14.4084C262.431 14.1945 262.224 14.2011 261.817 14.4588C261.052 14.942 259.346 15.0273 259.336 14.569C259.331 14.3857 258.967 14.3057 258.556 14.4411C258.093 14.5477 257.52 14.3826 257.15 14.0582C256.78 13.7337 256.205 13.477 255.843 13.4886C255.533 13.4986 255.167 13.3269 255.059 13.1469C254.845 12.848 254.535 12.8579 253.559 13.1644L252.327 13.5709L253.516 13.5327C254.809 13.5218 257.259 14.2687 257.269 14.6965C257.275 14.9714 254.22 14.886 253.697 14.6276C253.591 14.5393 253.18 14.6442 252.771 14.8714C252.311 15.1002 252.105 15.1373 252.203 14.9202C252.35 14.5486 252.142 14.5246 250.437 14.6099C249.299 14.6464 249.3 14.677 250.288 14.8899C251.016 15.0194 250.656 15.1227 248.794 15.1824C246.933 15.2421 246.415 15.1976 246.978 14.9349C247.541 14.6723 247.488 14.6434 246.768 14.8194C246.253 14.9276 245.583 15.0408 245.324 15.0491C245.014 15.0591 244.966 15.2135 245.177 15.3902C245.39 15.6279 245.132 15.6668 244.301 15.5406C243.314 15.3888 239.022 15.4654 237.215 15.6456C235.77 15.8143 234.007 15.6568 234.26 15.4041C234.411 15.2158 234.047 15.1358 233.272 15.1912C232.6 15.2434 232.138 15.411 232.297 15.5588C232.456 15.7066 231.527 15.8281 230.182 15.8102C228.888 15.7905 227.803 15.8559 227.805 15.9781C227.808 16.0698 227.033 16.1558 226.152 16.0923C223.615 15.9903 222.684 16.0201 213.275 16.3832C208.571 16.5647 204.537 16.6635 204.226 16.6429C203.967 16.6207 203.348 16.7017 202.835 16.871C201.498 17.2502 197.144 16.9313 197.444 16.463C197.594 16.2747 197.28 16.1014 196.763 16.118C196.246 16.1346 195.836 16.3006 195.891 16.4517C195.947 16.6334 195.641 16.7961 195.228 16.8399C194.814 16.8532 194.35 16.9292 194.196 16.9647C193.477 17.2018 179.573 17.8314 174.297 17.9089C173.727 17.8966 171.506 18.0291 169.388 18.1888C167.27 18.3484 164.994 18.3603 164.37 18.2275C163.591 18.0996 163.177 18.1128 163.182 18.3267C163.186 18.51 162.878 18.6117 162.566 18.5299C162.202 18.4805 161.273 18.5714 160.501 18.7185C159.676 18.8672 159.056 18.9177 159.054 18.7955C159.051 18.6733 158.221 18.6082 157.239 18.6397C156.256 18.6712 155.431 18.7894 155.434 18.9116C155.437 19.0338 153.527 19.2174 151.2 19.2921C143.756 19.5921 134.609 20.069 131.666 20.3469C130.118 20.5188 125.312 20.7953 121.074 20.9925C116.785 21.2218 112.962 21.4668 112.55 21.5717C112.139 21.6766 108.42 21.9488 104.286 22.1732C100.151 22.3976 96.0179 22.6525 95.037 22.7451C93.0241 22.9626 91.7782 22.7885 92.1824 22.3781C92.334 22.2203 92.176 22.1031 91.9174 22.1114C91.6072 22.1213 91.3537 22.3435 91.3595 22.5879C91.3689 22.9851 91.1628 23.0223 90.2766 22.745C89.4953 22.5254 89.2885 22.5321 89.501 22.7699C89.7122 22.9465 89.6131 23.1332 89.3546 23.1415C89.1662 23.1661 88.7676 23.2088 88.3099 23.2579C88.0154 23.2894 87.6965 23.3236 87.3934 23.3573L87.3925 23.3574C86.5663 23.445 84.9155 23.6202 83.6248 23.7228C82.3336 23.8254 79.7003 24.0627 77.6868 24.2496C75.7249 24.4349 72.5221 24.66 70.6091 24.7213C68.6451 24.8149 67.0968 24.9869 67.1004 25.1397C67.1033 25.2619 66.6911 25.3362 66.2236 25.2595C65.7168 25.1862 64.7721 25.3601 64.0594 25.6173C63.3509 25.6684 62.6423 25.7199 61.9334 25.7719C61.885 25.62 61.6454 25.5287 61.3663 25.5376C61.1177 25.5456 61.0152 25.662 61.1495 25.8296C41.1255 27.3071 21.019 29.1478 3.10287 31.3879C2.40106 31.189 1.81239 30.9819 1.46824 30.7922L0.314896 30.1565L1.56012 30.3C2.49439 30.4229 3.00855 30.2841 3.41209 29.8431C3.96931 29.336 3.86374 29.2477 2.87848 29.157C1.90797 29.0677 1.94361 29.0647 3.08008 28.9698L3.13267 28.9654C3.90823 28.9405 4.63425 29.0089 4.84539 29.1856C5.00411 29.3334 5.51899 29.2252 6.02882 28.9031C6.79501 28.481 6.79069 28.2977 6.26933 28.131C5.90452 28.0204 5.33505 28.008 5.07869 28.108C4.77063 28.2096 4.56309 28.1857 4.55949 28.033C4.55516 27.8496 5.7939 27.7181 7.24305 27.7328C10.5543 27.7183 12.1535 27.5141 12.4515 26.9847C12.6518 26.7031 12.3401 26.652 11.4633 26.7719C9.91581 26.9744 7.72118 26.0664 8.74589 25.636C9.71962 25.2379 10.1864 25.2841 9.8877 25.7828C9.73836 26.0322 9.89995 26.3022 10.2655 26.4434C10.6827 26.5829 10.7847 26.5184 10.468 26.2534C10.1505 25.9579 10.2525 25.8935 10.8766 26.0263C11.4482 26.1303 11.7563 26.0286 11.7505 25.7842C11.7447 25.5398 11.5321 25.302 11.2205 25.2509C10.9605 25.1981 10.9038 24.9858 11.1565 24.7331C11.8652 24.0683 18.8294 23.1722 20.7518 23.508C21.3235 23.612 22.4653 23.7588 23.2954 23.8545C24.229 23.9468 24.5952 24.1185 24.3403 24.2796C24.0344 24.4728 23.2072 24.4994 22.1695 24.3798C21.0786 24.2008 20.4072 24.2529 20.2054 24.4734C20.003 24.6634 20.1078 24.7211 20.4151 24.589C20.7232 24.4873 21.0859 24.5063 21.297 24.683C21.4557 24.8308 22.1315 24.9619 22.7526 24.9726C23.8384 24.9377 23.8391 24.9683 22.8625 25.2442C21.8859 25.5202 21.8866 25.5507 23.0241 25.5143C23.6453 25.5249 24.1594 25.3861 24.1566 25.2639C24.153 25.1111 25.0298 24.9913 26.0653 25.0192C28.4968 25.0023 29.9395 24.742 29.5689 24.387C29.3585 24.2409 29.6141 24.1104 30.0795 24.0954C30.6482 24.0772 30.8586 24.2233 30.659 24.5355C30.5097 24.7849 30.6181 24.9954 30.8766 24.9871C31.1869 24.9772 31.3894 24.7872 31.3843 24.5734C31.3778 24.2984 31.4812 24.2951 31.8504 24.589C32.1678 24.8846 32.5283 24.8118 33.4999 24.322C34.5217 23.7694 34.5698 23.615 33.9953 23.3889C33.578 23.2494 32.9045 23.2098 32.4937 23.3453C31.9788 23.4536 31.8223 23.3975 32.0757 23.1753C32.5805 22.6393 31.2814 22.4058 28.646 22.5515C26.9405 22.6368 26.162 22.5395 25.948 22.2406C25.6263 21.7617 26.2445 21.6501 30.0204 21.5901C31.8307 21.5626 31.9334 21.5288 30.7902 21.3208C29.751 21.1401 30.0081 21.0708 32.0784 21.0961C33.4759 21.1124 35.2841 20.9932 36.0561 20.8156C36.9314 20.6346 37.6043 20.6436 37.8161 20.8508C38.0273 21.0275 37.9253 21.0919 37.6129 21.0102C37.2991 20.8674 37.2 21.054 37.4169 21.4751C37.6891 22.0473 37.7933 22.0746 37.9383 21.6419C38.1307 21.0242 39.1605 20.8077 42.7761 20.5388C44.1707 20.4329 45.0518 20.4964 44.9003 20.6541C44.7488 20.8118 45.1115 20.8308 45.8317 20.6548C46.501 20.511 47.3778 20.3912 47.7397 20.3796C48.0499 20.3696 48.3573 20.2374 48.3537 20.0847C48.3508 19.9625 48.7098 19.8286 49.1235 19.8154C49.5371 19.8021 49.9019 19.9127 49.9055 20.0654C49.9084 20.1877 50.5303 20.2289 51.3561 20.1412C53.8329 19.8477 54.8131 19.7245 55.0694 19.6246C55.2238 19.5891 55.7911 19.5097 56.3591 19.4609C56.9279 19.4426 57.3365 19.2155 57.2273 18.9744C57.1167 18.6722 57.5289 18.5978 58.9285 18.7058C59.9655 18.7948 61.2107 18.9384 61.6265 19.0167C62.2505 19.1496 62.4035 19.053 62.1363 18.6946C61.7607 18.1257 62.0185 18.0869 63.5783 18.4037C64.2023 18.5366 65.2866 18.4407 66.315 18.1631C67.1889 17.921 67.9623 17.8045 67.9652 17.9267C67.968 18.0489 68.6948 18.1478 69.5738 18.1196C70.9705 18.1054 72.4326 18.67 71.8718 19.0243C71.4639 19.282 68.9699 18.8423 69.2736 18.5573C69.4251 18.3996 68.8585 18.5095 67.9861 18.8127C66.7021 19.2208 66.4996 19.4107 67.0246 19.7302C67.8655 20.2842 66.2627 20.3356 65.3184 19.7849C64.8465 19.5249 64.2763 19.482 63.5051 19.6902C62.8875 19.8324 62.3188 19.8506 62.2118 19.7012C62.1055 19.5823 61.5841 19.4156 61.0139 19.3727C60.2886 19.3348 60.033 19.4653 60.1451 19.8287C60.2571 20.192 59.9512 20.3852 59.2274 20.4084C58.6586 20.4267 58.1897 20.2889 58.1854 20.1055C58.1818 19.9528 58.4388 19.8834 58.8036 19.994C59.1685 20.1046 59.2194 20.0724 59.0069 19.8346C58.6909 19.6001 58.3799 19.5795 57.9713 19.8067C57.6137 20.0016 57.2015 20.076 57.0443 19.9893C56.887 19.9026 56.5782 19.9737 56.3757 20.1636C56.2249 20.3519 56.3319 20.5013 56.6422 20.4914C56.9524 20.4814 57.0594 20.6309 56.9086 20.8192C56.7061 21.0091 56.1905 21.0868 55.7747 21.0084C55.3589 20.93 55.2053 20.9961 55.364 21.1439C55.5234 21.3222 56.1467 21.4245 56.7155 21.4063C57.2842 21.388 57.5973 21.5003 57.4466 21.6886C57.295 21.8463 57.5055 21.9925 57.9708 21.9775C58.4361 21.9626 58.6918 21.8321 58.5338 21.7149C58.3751 21.5671 59.2009 21.4794 60.3908 21.4718C61.529 21.4659 62.6708 21.6127 62.8827 21.8199C63.0938 21.9966 63.924 22.0923 64.7498 22.0046L66.2463 21.8343L64.8417 21.5125C62.8654 21.0867 63.0169 20.9289 65.2948 20.9782C66.3303 21.0061 67.3708 21.2479 67.6351 21.484C67.9001 21.7507 68.3188 21.9513 68.5773 21.943C69.2495 21.9214 68.8135 20.9876 67.979 20.7086C67.3528 20.4841 67.3514 20.423 67.9661 20.1586C68.4788 19.9587 69.3075 19.9933 70.557 20.3201C72.2755 20.7848 72.4306 20.7798 74.8485 20.1824C76.3916 19.7966 78.5589 19.5436 80.5244 19.5111C82.3347 19.4836 84.5551 19.2901 85.4815 19.0769C87.4376 18.6472 90.2849 18.7087 89.1058 19.1746C88.5421 19.4067 88.5435 19.4678 89.164 19.4479C89.5776 19.4347 89.737 19.613 89.5374 19.9252C89.289 20.3612 89.3414 20.3901 90.0057 20.0324C90.4142 19.8053 90.6139 19.4932 90.4027 19.3165C90.1909 19.1093 90.397 19.0721 91.0727 19.2033C92.3201 19.4384 95.4812 19.6427 94.389 19.4026C93.9725 19.2937 93.0856 18.9858 92.4572 18.6696C91.8288 18.3535 91.1006 18.1934 90.7926 18.295C90.5369 18.4255 90.1736 18.376 89.9624 18.1993C89.8037 18.0515 89.9552 17.8938 90.3164 17.8516C90.6776 17.8095 90.4169 17.7261 89.6902 17.6271C88.1326 17.4019 87.6192 17.5712 88.6626 17.9352C89.2364 18.1309 88.98 18.2308 87.7391 18.2706C86.8085 18.3005 85.6659 18.1231 85.2465 17.892C84.565 17.5164 84.2031 17.528 82.7123 17.9427C81.7357 18.2187 80.0841 18.3939 78.8934 18.371C77.8055 18.3142 76.7219 18.4407 76.5194 18.6306C76.3679 18.7884 75.9578 18.9544 75.6476 18.9643C75.2857 18.976 75.3331 18.791 75.7402 18.5027C76.4525 17.9907 76.2443 17.9362 75.0099 18.251C74.5467 18.3576 74.3457 18.6087 74.5044 18.7564C74.7155 18.9331 74.3004 18.8853 73.624 18.7235C72.5954 18.4358 72.2415 18.3476 72.2031 18.1831C72.1793 18.081 72.2769 17.9496 72.4103 17.7229C72.6587 17.2868 72.8648 17.2497 73.2346 17.5742C73.6031 17.8375 73.8106 17.8614 73.9599 17.612C74.11 17.3932 75.0385 17.2717 76.4367 17.3185C77.6797 17.3704 78.8158 17.2728 78.9673 17.115C79.1705 16.9556 80.8229 16.8109 82.6857 16.8123C84.5485 16.8137 86.0457 16.6739 86.0421 16.5211C86.0392 16.3989 87.795 16.2508 89.9163 16.2439C92.0376 16.237 93.7941 16.1195 93.7905 15.9668C93.7876 15.8446 94.5617 15.7586 95.4946 15.8204C97.3595 15.9134 98.1351 15.8885 101.854 15.6163C103.766 15.4939 104.439 15.5334 104.291 15.8133C104.141 16.0627 104.452 16.0833 105.535 15.8957C106.306 15.7181 106.92 15.4232 106.812 15.2126C106.756 15.031 106.96 14.9022 107.324 14.9822C107.687 15.0317 107.952 15.2678 107.853 15.4545C107.806 15.67 107.963 15.7566 108.271 15.6245C108.579 15.5229 108.677 15.3057 108.518 15.1579C108.359 15.0101 108.51 14.7913 108.817 14.6591C109.124 14.527 109.645 14.6631 109.91 14.9298C110.28 15.2848 110.644 15.3343 111.362 15.0667C111.875 14.8973 112.906 14.7114 113.681 14.6865C114.457 14.6616 114.919 14.5245 114.708 14.3478C114.18 13.8755 115.268 13.9629 116.004 14.4591C116.53 14.8091 116.789 14.8008 117.813 14.3705C118.479 14.0739 119.252 13.9268 119.564 14.0085C119.826 14.1225 121.846 14.2105 124.071 14.2308C127.021 14.2585 128.157 14.1609 128.46 13.8454C128.764 13.5605 128.918 13.525 128.925 13.8C128.931 14.0749 129.345 14.0617 130.889 13.7369C133.256 13.1718 134.136 13.1741 135.026 13.6042C135.707 13.9798 136.689 13.9177 138.385 13.4353C138.899 13.2965 140.863 13.2029 142.675 13.2365C144.643 13.2956 145.883 13.2253 145.723 13.0469C145.459 12.8108 146.805 12.8288 149.554 13.1075C150.332 13.1743 151.155 12.995 151.819 12.6373C152.381 12.3136 152.948 12.2036 153.055 12.3531C153.218 12.6842 160.458 12.513 161.38 12.1165C161.688 12.0149 162.313 12.2089 162.736 12.5623C163.209 12.914 163.628 13.1146 163.625 12.9924C163.655 12.918 163.683 12.8107 163.712 12.7033C163.731 12.6318 163.75 12.5603 163.769 12.4985C163.765 12.3458 164.018 12.0931 164.273 11.932C164.529 11.8015 164.581 11.8304 164.379 12.0509C164.177 12.2714 164.495 12.567 165.067 12.7015C166.422 13.1166 166.68 13.0778 166.357 12.5378C166.144 12.3 165.831 12.1877 165.575 12.2877C165.319 12.3876 165.11 12.3026 165.106 12.1499C165.102 11.9665 165.46 11.8022 165.874 11.7889C166.287 11.7756 166.653 11.9168 166.657 12.1001C166.661 12.2834 167.026 12.3635 167.436 12.228C168.362 11.9842 168.478 12.5003 167.604 12.7424C167.244 12.8457 167.761 12.8291 168.741 12.7059C170.391 12.4695 170.495 12.4968 169.834 12.9766C169.072 13.582 169.643 13.6554 170.821 13.1284C171.333 12.8979 171.381 12.7435 171.017 12.6635C170.704 12.5818 169.974 12.33 169.451 12.1022C168.928 11.8438 168.77 11.7266 169.083 11.8388ZM349.042 17.4294C349.475 17.2828 349.241 17.2492 348.139 17.2845C347.525 17.3042 346.798 17.3781 346.297 17.4828L349.042 17.4294ZM340.322 17.5989C339.929 17.5134 339.735 17.5181 339.736 17.6103L340.322 17.5989ZM323.875 17.9185C323.755 17.9156 323.658 17.9174 323.582 17.9242L323.875 17.9185ZM291.175 18.554C291.11 18.5288 291.052 18.5294 290.997 18.5575L291.175 18.554ZM182.983 13.2579C184.014 13.072 184.165 12.9143 183.791 12.3759C183.575 12.0159 183.049 11.6659 182.686 11.6164C182.219 11.5397 182.169 11.633 182.486 11.898C183.543 12.8425 182.571 13.3323 180.746 12.7182C180.381 12.6076 180.124 12.677 180.128 12.8603C180.139 13.3186 181.489 13.5199 182.983 13.2579ZM273.496 9.43663C274.221 9.47451 274.79 9.45629 274.685 9.42905C274.627 9.39689 274.44 9.32152 274.204 9.2267C274.016 9.15114 273.797 9.06324 273.588 8.97502C272.909 8.69106 272.65 8.69937 272.656 8.94379C272.661 9.15766 272.404 9.22706 272.039 9.11646C271.674 9.00586 271.52 9.04139 271.73 9.15696C271.992 9.30143 272.771 9.4293 273.496 9.43663ZM156.697 13.2147C157.019 13.6935 157.122 13.6902 157.885 13.1459C158.342 12.7644 158.288 12.6744 157.462 12.762C156.842 12.7819 156.536 12.9752 156.697 13.2147ZM259.911 10.4534C260.741 10.5491 260.845 10.5458 260.271 10.3502C258.394 9.73774 257.307 9.742 257.012 10.3936C256.769 11.0435 257.86 11.253 258.467 10.6526C258.669 10.4627 259.288 10.3817 259.911 10.4534ZM144.623 14.6416C143.591 14.7664 143.277 14.6236 143.943 14.3271C144.353 14.1611 144.452 14.005 144.194 14.0133C143.884 14.0232 143.165 14.2603 142.602 14.523C141.987 14.7873 141.37 14.9294 141.212 14.8427C140.741 14.5827 136.707 14.6816 136.713 14.9565C136.716 15.0787 136.25 15.0631 135.626 14.8997C135.052 14.7041 134.171 14.6712 133.709 14.8083C133.246 14.9454 130.198 15.135 126.993 15.2684C122.445 15.4755 121.051 15.6425 120.697 15.9902C120.242 16.4023 120.138 16.4056 119.663 16.0233C119.294 15.6989 119.034 15.6766 118.626 15.9343C118.168 16.2242 118.429 16.3381 119.467 16.4577C120.245 16.555 121.02 16.4996 121.171 16.3419C121.576 15.962 123.793 15.5851 123.8 15.8906C123.803 16.0434 123.602 16.2639 123.293 16.3655C122.627 16.6315 122.639 17.1509 123.311 17.1293C123.57 17.121 123.773 16.9616 123.666 16.7816C123.609 16.6 123.862 16.3473 124.274 16.2423C124.737 16.1358 124.842 16.2241 124.642 16.5057C124.391 16.8195 124.493 16.7856 124.952 16.4652C125.613 15.9853 129.59 15.6743 130.271 16.0499C130.848 16.3677 132.131 15.8985 131.708 15.5146C131.496 15.3379 131.756 15.3602 132.227 15.5897C132.697 15.7886 133.112 15.8365 133.108 15.6532C133.104 15.5004 133.565 15.2716 134.131 15.1617C134.698 15.0518 135.061 15.1012 134.858 15.2606C134.556 15.6067 135.073 15.6207 140.553 15.4143C142.828 15.3107 145.003 15.3938 145.369 15.5655C145.735 15.7372 146.047 15.7884 146.045 15.6967C146.043 15.6051 146.715 15.614 147.598 15.7386C149.778 16.0355 149.973 15.5401 147.791 15.1514C146.752 14.9708 146.124 14.6852 146.326 14.4647C146.476 14.2458 146.221 14.3763 145.814 14.6951C145.357 15.0461 144.997 15.1494 144.993 14.9661C144.988 14.7522 144.83 14.635 144.623 14.6416ZM158.581 14.1326C159.409 14.1366 159.924 13.9978 159.712 13.8211C159.553 13.6428 159.343 13.5272 159.292 13.5594C159.241 13.5611 158.726 13.6999 158.161 13.8709C157.236 14.1452 157.289 14.1741 158.581 14.1326ZM164.631 13.9691C164.367 13.7329 164.106 13.6496 164.111 13.8329C164.114 13.9856 163.854 13.9328 163.538 13.6984C163.064 13.3161 163.012 13.3178 163.229 13.7389C163.391 14.0089 163.245 14.411 162.939 14.6043C162.531 14.862 162.533 14.9536 162.947 14.9404C163.309 14.9288 163.719 14.7627 163.87 14.605C164.073 14.415 164.33 14.3456 164.538 14.4001C164.746 14.4546 165.364 14.3125 165.927 14.0498C166.746 13.6566 166.796 13.5939 166.02 13.6187C165.555 13.6337 165.146 13.8303 165.15 14.0136C165.156 14.2886 164.949 14.2646 164.631 13.9691ZM256.328 11.171C256.352 11.0962 256.378 11.0156 256.404 10.9329C256.499 10.5935 256.236 10.4184 255.564 10.44C255.047 10.4566 254.584 10.5632 254.586 10.6548C254.591 10.8381 256.164 11.7355 256.212 11.5811C256.211 11.5364 256.263 11.3753 256.328 11.171ZM148.924 14.9011C150.223 15.1346 151.048 15.047 151.349 14.6093C151.498 14.3599 150.977 14.2237 149.839 14.2296C148.027 14.196 147.468 14.6115 148.924 14.9011ZM328.128 9.09027C328.485 8.86479 328.637 8.70704 328.532 8.6798C328.501 8.68082 328.392 8.68177 328.219 8.68329C327.541 8.68926 325.876 8.70391 323.981 8.7647C319.843 8.8363 319.741 8.87017 320.786 9.32583C322.093 9.89541 327.108 9.7345 328.128 9.09027ZM337.377 8.54889C336.716 9.02875 332.577 9.03925 332.255 8.56036C332.148 8.41092 331.266 8.3169 330.232 8.35008C329.198 8.38326 328.528 8.4965 328.686 8.61374C328.895 8.69876 328.595 9.13642 327.983 9.52295C327.27 9.99428 327.261 10.3309 327.955 10.5329C328.528 10.6979 329.409 10.7308 329.82 10.6259C330.283 10.4888 331.009 10.5572 331.427 10.7578C331.95 10.9856 332.416 11.0012 333.083 10.7352C333.664 10.5128 333.678 10.4002 333.126 10.3975C332.609 10.4141 331.724 10.1673 331.147 9.8495L330.046 9.24274L331.499 9.41015C332.329 9.50581 333.368 9.6865 333.836 9.79378C334.305 9.93161 335.136 10.0273 335.652 9.98015C336.479 9.95361 336.478 9.92304 335.543 9.73904C334.71 9.55171 334.864 9.48563 336.463 9.25089C337.494 9.0955 338.368 8.85344 338.364 8.70068C338.36 8.54792 338.722 8.50578 339.241 8.58085C339.812 8.68481 339.967 8.64928 339.703 8.41315C339.174 7.9409 338.089 8.00628 337.377 8.54889ZM114.706 16.4576C116.009 16.8438 117.608 16.6396 117.596 16.1202C117.587 15.7536 115.411 15.6094 114.279 15.8903C113.507 16.068 113.561 16.158 114.706 16.4576ZM340.953 8.7705C341.261 8.66889 341.464 8.5095 341.462 8.41784C341.461 8.35674 341.252 8.30226 340.942 8.31221C340.684 8.32051 340.429 8.48156 340.433 8.66487C340.437 8.81763 340.697 8.87045 340.953 8.7705ZM344.055 8.67097C344.363 8.56935 344.566 8.40996 344.564 8.31831C344.563 8.2572 344.355 8.20273 344.044 8.21268C343.786 8.22097 343.531 8.38202 343.535 8.56534C343.539 8.7181 343.799 8.77092 344.055 8.67097ZM110.793 17.2558C111.672 17.2276 112.444 17.0805 112.441 16.9278C112.438 16.8055 112.172 16.5083 111.908 16.2722C111.485 15.8883 111.381 15.8916 111.391 16.3193C111.399 16.6248 110.785 16.9197 109.856 17.0412C108.98 17.1917 108.314 17.4882 108.32 17.7326C108.327 18.0076 108.691 18.0876 109.361 17.9744C109.927 17.8645 110.757 17.9296 111.175 18.1302C111.856 18.4447 111.907 18.4125 111.639 18.0236C111.477 17.7536 110.85 17.4986 110.228 17.4574C109.451 17.3906 109.656 17.3228 110.793 17.2558ZM156.797 15.26C157.058 15.3434 157.572 15.2045 157.928 14.9485C158.64 14.4365 158.069 14.3325 156.941 14.7967C156.531 14.9628 156.484 15.1477 156.797 15.26ZM185.032 14.5375C186.066 14.5044 185.799 14.146 184.658 14.0603C184.296 14.0414 183.569 13.9424 182.997 13.8384L181.957 13.6272L183.003 14.0829C183.578 14.3396 184.515 14.5541 185.032 14.5375ZM208.396 13.5433C208.237 13.3955 208.387 13.1461 208.696 13.0751C209.158 12.9379 209.208 12.8752 208.743 12.8901C207.863 12.8877 207.462 13.4204 208.14 13.6738C208.505 13.7844 208.608 13.7506 208.396 13.5433ZM153.795 15.234C154.839 15.598 155.511 15.5764 155.088 15.1925C154.928 15.0142 154.357 14.9102 153.891 14.9251C153.116 14.95 153.117 15.0111 153.795 15.234ZM229.603 13.2298C230.331 13.3593 230.382 13.3271 229.804 12.9482C229.068 12.452 228.756 12.4009 228.765 12.798C228.769 12.9508 229.136 13.1531 229.603 13.2298ZM339.213 9.59071C339.627 9.57744 339.83 9.41804 339.671 9.27026C339.512 9.09192 339.147 8.98132 338.837 8.99128C338.578 8.99957 338.374 9.12842 338.379 9.31173C338.382 9.46449 338.748 9.60564 339.213 9.59071ZM349.409 9.69165C349.045 9.6116 348.884 9.37215 349.034 9.1533C349.182 8.87336 348.714 8.7661 347.422 8.80757C345.715 8.86231 345.665 8.92506 346.452 9.38901C347.188 9.85462 347.189 9.91574 346.262 10.0984C345.748 10.2372 344.816 10.2365 344.297 10.1309C343.413 9.97575 343.414 10.0063 344.045 10.4447C344.94 11.0886 345.922 11.0571 347.095 10.3163C347.554 10.0264 348.428 9.78429 348.997 9.79659C349.567 9.83945 349.773 9.77169 349.409 9.69165ZM97.6031 17.465C97.244 17.5988 96.9331 17.5782 96.9295 17.4254C96.9216 17.0894 95.4221 17.1375 95.0681 17.4851C94.9166 17.6429 94.2969 17.6933 93.6743 17.6216C92.7917 17.497 92.689 17.5309 93.3152 17.7554C93.9939 18.0088 93.9436 18.0716 93.1681 18.0964C92.651 18.113 92.3437 18.2452 92.5548 18.4219C92.9785 18.8363 96.5892 18.3536 97.4545 17.7449C97.8616 17.4567 97.9104 17.3328 97.6031 17.465ZM103.818 17.6936C103.141 17.5319 102.618 17.2735 102.614 17.1207C102.606 16.7847 102.245 16.8268 99.6741 17.5208C97.1543 18.1826 96.903 18.4964 98.7708 18.7116C99.7044 18.804 100.426 18.6891 101.09 18.3009C101.753 17.9127 102.526 17.7962 103.512 17.8869C104.86 17.9965 104.911 17.9949 103.818 17.6936ZM160.699 16.1744C161.003 15.8894 161.669 15.5929 162.081 15.5185C163.419 15.231 161.812 15.0685 160.266 15.3627C159.441 15.4809 159.03 15.6164 159.393 15.6353C159.703 15.6254 160.02 15.8904 160.026 16.1654C160.037 16.6237 160.089 16.622 160.699 16.1744ZM232.309 13.8768C233.183 13.6347 233.953 13.3654 233.95 13.2432C233.947 13.121 233.582 12.9798 233.165 12.8709C232.749 12.7925 232.39 12.8958 232.394 13.0791C232.398 13.2624 231.993 13.6118 231.532 13.8405C230.765 14.2015 230.869 14.2288 232.309 13.8768ZM306.954 10.8092C307.478 11.0981 308 11.2648 308.101 11.1699C308.254 11.0732 307.834 10.8421 307.209 10.6481C306.114 10.2858 306.114 10.3163 306.954 10.8092ZM343 10.0196C343.046 9.74294 343.349 9.42747 343.709 9.35475C344.017 9.25314 343.756 9.16975 343.033 9.19297C342.309 9.2162 341.279 9.43269 340.717 9.72591C339.847 10.1513 339.798 10.2446 340.475 10.4675C340.998 10.6647 341.461 10.5887 341.815 10.241C342.272 9.85947 342.479 9.85285 342.693 10.1517C342.906 10.4201 343.009 10.3862 343 10.0196ZM361.24 8.94515C360.105 9.0733 358.967 9.10977 358.809 8.99253C358.233 8.67471 355.599 8.88155 354.988 9.29864C354.122 9.87678 354.336 10.1757 355.63 10.1953C356.251 10.2059 357.65 10.2833 358.739 10.3707C360.501 10.4976 360.758 10.4282 361.003 9.83943C361.148 9.43728 361.557 9.21015 361.973 9.28854C362.337 9.36858 362.8 9.262 363.003 9.07205C363.255 8.81934 362.738 8.80538 361.24 8.94515ZM371.955 9.09059C371.539 9.0122 371.274 8.77605 371.374 8.58942C371.468 8.18892 371.416 8.1906 370.441 8.55819C370.032 8.75478 369.568 8.83081 369.359 8.74579C369.151 8.69132 368.842 8.76237 368.64 8.95232C368.488 9.11006 368.75 9.25453 369.267 9.23794C369.836 9.21969 370.459 9.322 370.773 9.46481C371.35 9.78264 373.562 9.25301 373.552 8.79473C373.548 8.64197 373.182 8.50082 372.717 8.51575C372.252 8.53068 372.1 8.68841 372.311 8.86509C372.523 9.07232 372.37 9.16897 371.955 9.09059ZM107.194 18.2579C107.401 18.2513 107.602 18.0003 107.595 17.6947C107.58 17.0531 105.871 17.0162 105.472 17.6405C105.324 17.951 105.481 18.0071 105.995 17.8683C106.406 17.7634 106.77 17.8129 106.773 17.9657C106.778 18.149 106.987 18.2646 107.194 18.2579ZM126.301 16.6359C126.665 16.716 127.13 16.6705 127.283 16.5738C127.487 16.4755 127.175 16.3938 126.607 16.4426C126.038 16.4609 125.885 16.5576 126.301 16.6359ZM353.409 10.3583C353.667 10.35 353.766 10.1633 353.605 9.92389C353.177 9.29556 351.931 9.15209 351.634 9.71199C351.435 10.0547 351.541 10.143 352.106 9.972C352.517 9.86707 352.881 9.91657 352.884 10.0693C352.889 10.2526 353.098 10.3682 353.409 10.3583ZM365.862 9.65295C366.276 9.63968 366.893 9.49756 367.252 9.33318C367.815 9.10107 367.814 9.03999 367.19 8.90714C366.722 8.83041 366.105 8.9725 365.8 9.22687C365.291 9.57953 365.293 9.6712 365.862 9.65295ZM377.437 8.97583C376.043 9.11228 375.42 9.04055 375.518 8.79282C375.661 8.26845 375.404 8.33783 374.385 9.04316C373.52 9.65186 373.521 9.68243 374.712 9.73593C375.386 9.77547 376.574 9.6762 377.346 9.52911C378.634 9.30432 378.739 9.33154 378.179 9.74696C377.722 10.098 377 10.2129 375.445 10.1099L373.321 9.99457L374.78 10.4064C376.082 10.7927 376.496 10.7794 377.987 10.3646C378.912 10.0904 379.892 9.96721 380.101 10.0522C380.311 10.1678 380.308 10.0761 380.044 9.84001C379.727 9.54444 380.036 9.47339 381.642 9.57473C383.819 9.71892 387.184 9.82495 388.84 9.83297C389.719 9.80477 389.721 9.86588 389.106 10.1302C388.696 10.2962 388.596 10.4523 388.906 10.4424C389.165 10.4341 389.627 10.2969 389.934 10.1342C390.698 9.62048 393.438 9.50202 394.069 9.9404C394.49 10.2327 394.904 10.25 395.622 9.98231C396.238 9.77909 396.961 9.72528 397.483 9.89201C398.056 10.0571 398.469 10.0133 398.671 9.82331C398.874 9.63336 399.493 9.55234 400.115 9.6241C400.998 9.74866 401.101 9.71478 400.474 9.49027C399.066 9.01567 395.238 9.0468 394.939 9.54559C394.74 9.8883 394.48 9.83547 393.9 9.36488C393.162 8.77705 391.14 8.59733 391.153 9.14727C391.156 9.30004 390.953 9.45943 390.694 9.46773C390.436 9.47602 390.325 9.17384 390.471 8.77168C390.616 8.33897 390.562 8.21842 390.257 8.47279C389.801 8.8849 386.392 9.11658 383.128 8.94612C379.813 8.80787 379.606 8.8145 377.437 8.97583ZM114.536 18.0224C115.202 17.7258 115.2 17.6647 114.522 17.4113C113.374 17.0201 113.117 17.0895 112.823 17.7716C112.528 18.4537 113.307 18.551 114.536 18.0224ZM133.825 17.5258C134.287 17.3887 134.694 17.1004 134.689 16.8866C134.675 16.2755 134.109 16.416 132.63 17.3501C131.917 17.8011 131.716 18.0827 132.127 17.9472C132.22 17.9236 132.33 17.8948 132.452 17.8632C132.872 17.7538 133.425 17.6098 133.825 17.5258ZM207.131 14.7458C207.441 14.7358 207.489 14.5814 207.33 14.4336C207.171 14.2553 206.755 14.1463 206.496 14.1546C206.186 14.1646 206.137 14.2884 206.296 14.4668C206.455 14.6146 206.872 14.7541 207.131 14.7458ZM220.988 14.3012C221.298 14.2912 221.553 14.1302 221.549 13.9774C221.545 13.7941 221.438 13.6752 221.335 13.6785C221.18 13.6835 220.924 13.814 220.774 14.0023C220.622 14.16 220.729 14.3095 220.988 14.3012ZM245.449 13.761C246.535 13.7261 247.308 13.579 247.15 13.4618C246.992 13.3445 246.315 13.1828 245.59 13.1449C244.916 13.0748 244.451 13.1203 244.558 13.2697C244.716 13.387 244.513 13.5464 244.205 13.648C243.844 13.7207 244.364 13.7958 245.449 13.761ZM128.445 17.5761C128.703 17.5678 129.113 17.4018 129.265 17.2441C129.415 17.0558 129.361 16.9352 129.051 16.9452C128.792 16.9535 128.381 17.0889 128.231 17.2772C128.079 17.435 128.134 17.5861 128.445 17.5761ZM167.323 16.2064C167.331 16.5425 167.488 16.6292 167.638 16.3798C167.788 16.161 167.73 15.8876 167.572 15.801C167.414 15.6837 167.263 15.872 167.323 16.2064ZM180.97 15.6463C181.693 15.562 182.258 15.4215 182.257 15.3604C182.251 15.116 180.238 15.3029 179.986 15.5861C179.833 15.7133 180.3 15.7595 180.97 15.6463ZM184.954 15.6407C185.319 15.7513 185.369 15.6886 185.158 15.5119C184.946 15.3047 184.632 15.1619 184.426 15.1685C183.858 15.2173 182.689 16.1415 183.258 16.1232C183.517 16.1149 183.927 15.9489 184.078 15.7912C184.281 15.6012 184.642 15.559 184.954 15.6407ZM218.764 14.342C218.511 14.5947 219.971 15.0982 220.277 14.8744C220.379 14.8099 220.115 14.6044 219.749 14.4327C219.33 14.2321 218.915 14.1842 218.764 14.342ZM306.727 12.1618C307.451 12.1386 307.967 12.0914 307.862 12.0336C307.758 12.0064 307.289 11.8078 306.819 11.609L306.818 11.6085C306.087 11.3262 305.88 11.3329 305.631 11.7383C305.432 12.081 305.693 12.195 306.727 12.1618ZM338.481 11.4487C338.791 11.4388 338.683 11.2588 338.316 11.0566C337.949 10.8543 337.115 10.6059 336.441 10.5358C335.455 10.4145 335.352 10.4484 335.878 10.7984C336.193 11.0023 336.662 11.1402 336.867 11.0419C337.123 10.9419 337.435 10.9931 337.646 11.1698C337.805 11.3175 338.222 11.457 338.481 11.4487ZM339.242 10.8128C339.345 10.8095 339.445 10.6534 339.441 10.5006C339.437 10.3173 339.176 10.2034 338.865 10.2134C338.607 10.2217 338.506 10.3472 338.666 10.5255C338.825 10.6733 339.087 10.8178 339.242 10.8128ZM140.8 17.088C141.164 17.1681 141.628 17.1226 141.781 17.0259C141.986 16.9276 141.674 16.8459 141.106 16.8947C140.537 16.913 140.384 17.0096 140.8 17.088ZM145.819 17.1104C146.236 17.2194 146.7 17.1433 146.851 16.9856C147.054 16.7956 146.689 16.685 146.12 16.7033C144.828 16.7447 144.728 16.9314 145.819 17.1104ZM169.084 16.2722C169.455 16.6273 171.265 16.5998 171.567 16.2537C171.719 16.1265 171.148 16.0226 170.32 16.0186C169.44 16.0162 168.925 16.1245 169.084 16.2722ZM174.779 16.3953C175.089 16.3853 174.93 16.2375 174.513 16.0981C174.096 15.9586 173.523 15.824 173.213 15.834C172.955 15.8423 173.062 15.9917 173.479 16.1312C173.896 16.2707 174.52 16.4036 174.779 16.3953ZM191.481 15.9511C192.149 15.7462 192.148 15.6851 191.264 15.53C190.744 15.4244 189.914 15.3287 189.501 15.342C188.88 15.3619 188.934 15.4519 189.666 15.7648C190.24 15.9604 191.018 16.0577 191.481 15.9511ZM200.165 15.5808C200.269 15.5774 200.368 15.4214 200.365 15.2686C200.361 15.0853 200.099 14.9714 199.789 14.9813C199.53 14.9896 199.43 15.1151 199.589 15.2935C199.748 15.4413 200.01 15.5857 200.165 15.5808ZM215.625 15.0848C216.09 15.0698 216.293 14.9104 216.135 14.7626C215.975 14.5843 215.714 14.4704 215.61 14.4737C215.507 14.477 215.251 14.6075 215.1 14.7958C214.949 14.9536 215.159 15.0997 215.625 15.0848ZM222.492 14.467C222.856 14.547 223.321 14.5015 223.474 14.4049C223.678 14.3066 223.366 14.2249 222.798 14.2737C222.229 14.2919 222.076 14.3886 222.492 14.467ZM227.723 14.6966C228.344 14.6767 228.808 14.6006 228.806 14.5395C228.8 14.2645 227.245 14.1616 226.992 14.4143C226.79 14.6042 227.155 14.7148 227.723 14.6966ZM268.415 13.4216C268.007 13.6487 270.74 13.2553 272.488 12.8017C273.26 12.624 271.089 12.7243 269.905 12.9458C269.338 13.0557 268.67 13.2605 268.415 13.4216ZM329.528 11.3997C330.149 11.4103 330.663 11.2409 330.659 11.0882C330.655 10.9049 330.6 10.7843 330.549 10.8165C330.446 10.8198 329.931 10.9586 329.366 11.1297C328.39 11.4056 328.39 11.4362 329.528 11.3997ZM370.537 10.4202C370.847 10.4103 370.999 10.2525 370.89 10.042C370.568 9.53256 369.583 9.44185 369.127 9.88451C368.926 10.1356 368.979 10.1645 369.338 10.0306C369.697 9.89681 369.957 9.94964 369.96 10.1024C369.965 10.2857 370.227 10.4302 370.537 10.4202ZM365.303 10.0989C365.309 10.3434 367.95 10.4115 368.203 10.1588C368.354 10.0011 367.731 9.89875 366.903 9.9253C366.024 9.9535 365.302 10.0378 365.303 10.0989ZM49.4274 21.7319C49.4238 21.5791 48.2834 21.4934 46.8357 21.5398C44.8709 21.6029 44.0925 21.5055 43.513 21.0655C42.723 20.4793 42.7237 20.5099 42.9974 21.1432C43.2696 21.7154 43.0649 21.8137 40.7943 22.07C39.4521 22.2048 37.7517 22.5039 37.0831 22.6783C35.9521 22.9897 35.9004 22.9914 36.561 22.481C37.1707 22.0028 37.1692 21.9417 36.5007 22.1161C36.0892 22.221 34.9488 22.1353 34.0124 21.9207C33.0243 21.7078 32.4031 21.6971 32.6135 21.8433C32.7729 22.0216 33.2936 22.1578 33.6555 22.1462C34.4828 22.1196 35.2893 23.4085 34.7838 23.9139C34.5806 24.0733 34.7415 24.3128 35.0546 24.425C35.367 24.5067 35.8309 24.4307 36.0326 24.2102C36.5381 23.7048 37.7367 24.0638 37.2829 24.5676C37.0811 24.7881 37.0826 24.8492 37.2865 24.7203C37.4912 24.622 38.3708 24.6244 39.201 24.72C40.1877 24.8718 40.704 24.8247 40.699 24.6108C40.6954 24.4581 41.1076 24.3837 41.575 24.4604C42.3032 24.6205 42.3018 24.5594 41.4615 24.036L40.464 23.4259L41.9685 23.5917C42.8504 23.6857 43.631 23.8747 43.6863 24.0258C44.0059 24.413 44.7785 24.2659 45.8492 23.5895C46.41 23.2351 47.2825 22.932 47.7995 22.9154C48.5234 22.8922 48.5736 22.8294 47.8957 22.6065C47.2702 22.4126 47.4749 22.3143 48.6641 22.2761C49.8533 22.238 50.0622 22.323 49.4468 22.5568C48.8322 22.8211 48.937 22.8789 49.8677 22.849C50.5398 22.8275 50.8989 22.6936 50.7394 22.5153C50.5283 22.3386 51.0942 22.1982 52.1282 22.165C53.5235 22.0896 53.6779 22.0541 52.8959 21.804C52.4262 21.6356 52.1102 21.4012 52.2617 21.2434C52.9188 20.5803 51.2125 20.635 50.3487 21.3048C49.8403 21.688 49.431 21.8846 49.4274 21.7319ZM85.1433 20.0967C85.771 20.3824 86.0281 20.3129 86.5343 19.8381C87.0398 19.3326 86.9866 19.2732 86.1084 19.332C85.5404 19.3808 84.7182 19.6212 84.2593 19.9111C83.6468 20.267 83.3373 20.3076 83.175 20.007C83.0155 19.8287 82.2874 19.6686 81.5642 19.7223C80.2199 19.7655 80.2206 19.796 81.3639 20.004C81.9879 20.1368 82.5107 20.3647 82.5143 20.5174C82.5179 20.6702 83.0881 20.713 83.8098 20.5982C84.5839 20.5122 84.9408 20.2867 84.729 20.0794C84.4654 19.8739 84.6205 19.8689 85.1433 20.0967ZM145.27 17.9536C145.735 17.9386 146.094 17.7743 146.09 17.6215C146.086 17.4382 145.876 17.3226 145.618 17.3309C145.307 17.3409 144.948 17.4747 144.797 17.663C144.646 17.8207 144.856 17.9668 145.27 17.9536ZM178.52 17.0702C178.725 16.9719 178.361 16.8919 177.844 16.9085C177.275 16.9267 176.547 16.7972 176.233 16.6238C175.866 16.4216 175.556 16.4315 175.353 16.6215C174.999 16.9692 178.01 17.3923 178.52 17.0702ZM207.104 15.7862C207.471 15.9885 207.781 15.9785 208.138 15.753C208.444 15.5598 208.286 15.4425 207.614 15.4641C206.941 15.4857 206.789 15.6129 207.104 15.7862ZM212.069 15.688C212.742 15.697 213.308 15.5871 213.305 15.4344C213.297 15.0983 211.383 15.1291 211.08 15.4446C210.928 15.6024 211.397 15.7096 212.069 15.688ZM309.433 12.8088C309.694 12.8921 310.002 12.7905 310.152 12.5717C310.301 12.3223 310.09 12.1456 309.676 12.1589C308.849 12.1854 308.703 12.5876 309.433 12.8088ZM372.302 10.6693C372.768 10.6544 372.971 10.495 372.812 10.3472C372.653 10.1689 372.391 10.055 372.288 10.0583C372.184 10.0616 371.929 10.1921 371.778 10.3804C371.626 10.5381 371.837 10.6843 372.302 10.6693ZM403.587 9.84902C404.469 9.94303 405.19 9.79759 405.597 9.4788C406.004 9.19055 406.206 9.00063 406.104 9.0345C406.001 9.06837 404.917 9.16432 403.729 9.26358C401.767 9.44882 401.562 9.51656 401.682 10.2465C401.804 11.007 403.112 11.6376 403.096 10.9349C403.091 10.7516 402.881 10.6055 402.674 10.6121C402.416 10.6204 402.204 10.4438 402.199 10.1993C402.191 9.86326 402.603 9.78888 403.587 9.84902ZM87.6273 20.1088C87.9375 20.0988 88.1924 19.9377 88.1888 19.785C88.1845 19.6017 88.0782 19.4828 87.9748 19.4861C87.8197 19.4911 87.564 19.6216 87.4133 19.8099C87.2617 19.9676 87.3687 20.117 87.6273 20.1088ZM169.623 17.1722C170.871 17.4685 172.269 17.4848 171.745 17.1959C171.535 17.0803 170.756 16.983 169.979 16.9468C168.789 16.9238 168.738 16.956 169.623 17.1722ZM201.315 16.0637C201.679 16.1437 202.144 16.0982 202.297 16.0016C202.501 15.9033 202.189 15.8216 201.621 15.8704C201.052 15.8886 200.899 15.9853 201.315 16.0637ZM81.7905 20.5406C81.9923 20.3201 81.9398 20.2912 81.5291 20.4267C81.2217 20.5589 80.6006 20.5482 80.2343 20.3765C79.5018 20.0331 78.732 20.3024 79.2075 20.7152C79.6305 21.0991 81.3869 20.9816 81.7905 20.5406ZM330.582 12.222C330.894 12.2731 331.514 12.2532 331.875 12.1805C332.183 12.0789 331.923 12.0261 331.199 12.0493C330.475 12.0725 330.218 12.1419 330.582 12.222ZM342.018 12.2525C342.639 12.2326 343.102 12.1566 343.101 12.0955C343.095 11.8205 341.54 11.7175 341.287 11.9702C341.085 12.1602 341.449 12.2708 342.018 12.2525ZM129.947 19.8517C130.101 19.7856 129.632 19.6477 128.957 19.5471C128.282 19.4465 127.603 19.193 127.392 19.0164C127.128 18.7802 126.973 18.8158 126.98 19.0908C126.988 19.4574 129.54 20.1399 129.947 19.8517ZM368.333 11.3165C368.645 11.3676 369.265 11.3477 369.626 11.275C369.934 11.1734 369.674 11.1206 368.95 11.1438C368.226 11.167 367.969 11.2364 368.333 11.3165ZM375.125 11.863C375.649 12.1825 375.701 12.1503 375.432 11.7308C375.057 11.1925 373.238 10.8533 372.783 11.296C372.631 11.4537 372.944 11.566 373.461 11.5494C374.03 11.5312 374.758 11.6913 375.125 11.863ZM393.782 10.9586C393.779 10.8058 393.411 10.573 392.944 10.4963C392.476 10.4195 391.647 10.385 391.027 10.4049C390.373 10.4666 390.426 10.5261 391.186 10.5833C391.912 10.6517 392.796 10.8374 393.162 10.9785C393.581 11.1791 393.788 11.1725 393.782 10.9586ZM399.986 10.6984C400.554 10.6802 401.018 10.6041 401.017 10.543C401.015 10.4819 400.547 10.3747 399.976 10.3012C399.405 10.2278 398.941 10.3038 398.945 10.4566C398.949 10.6094 399.417 10.7167 399.986 10.6984ZM74.5118 21.2634C74.9225 21.1279 75.2815 20.9941 75.2801 20.933C75.2787 20.8719 74.9153 20.8224 74.5017 20.8356C74.088 20.8489 73.729 20.9827 73.7333 21.166C73.7369 21.3188 74.1003 21.3683 74.5118 21.2634ZM56.4326 22.5773C57.1225 22.5755 57.1364 22.4324 56.4743 22.1479C55.8998 21.9217 55.0682 21.7649 54.6545 21.7782C53.9307 21.8014 53.9314 21.832 54.61 22.0854C55.288 22.3082 55.2377 22.371 54.5138 22.3942C53.9968 22.4108 53.5868 22.5768 53.5911 22.7601C53.5961 22.974 53.9588 22.9929 54.5246 22.8525C54.9871 22.7153 55.8639 22.5955 56.4326 22.5773ZM385.322 12.025C385.524 11.8045 385.521 11.7129 385.266 11.8434C385.062 11.9722 384.441 11.9616 383.919 11.7948C383.347 11.6603 382.932 11.6125 382.933 11.6736C382.935 11.7652 383.406 11.9642 383.927 12.1309C384.708 12.3199 385.07 12.3083 385.322 12.025ZM403.618 11.1628C403.626 11.4683 404.619 11.8951 404.925 11.7324C404.976 11.6696 404.763 11.4318 404.345 11.2312C403.926 11.0306 403.615 11.01 403.618 11.1628ZM451.733 10.8727C452.347 10.6083 452.294 10.5489 451.364 10.5787C450.691 10.6003 449.755 10.3858 449.231 10.0968C448.392 9.63454 448.081 9.61391 447.313 9.97487C446.802 10.2359 446.498 10.5208 446.707 10.6058C446.917 10.7214 447.38 10.6148 447.841 10.386C448.505 10.0284 448.609 10.0556 448.31 10.5544C448.111 10.8666 447.4 11.4703 446.685 11.8602C445.8 12.337 445.752 12.5016 446.542 12.354C447.16 12.2424 447.826 11.9459 447.976 11.727C448.125 11.4776 448.845 11.2711 449.62 11.2462C450.344 11.223 451.323 11.0387 451.733 10.8727ZM52.3632 23.3499C52.7725 23.1533 53.0762 22.8684 53.0726 22.7156C53.0596 22.1657 52.1355 22.4705 51.8921 23.1204C51.6968 23.6159 51.7499 23.6753 52.3632 23.3499ZM421.265 11.2387C421.523 11.2304 421.623 11.0743 421.464 10.9265C421.305 10.7482 421.043 10.6343 420.888 10.6393C420.785 10.6426 420.684 10.7681 420.689 10.9514C420.692 11.1042 420.954 11.2486 421.265 11.2387ZM62.2817 22.6648C62.6458 22.7448 63.1104 22.6993 63.2633 22.6027C63.468 22.5044 63.1556 22.4227 62.5876 22.4715C62.0188 22.4897 61.8659 22.5864 62.2817 22.6648ZM16.2358 25.09C17.2778 25.3929 19.1319 25.0276 18.8633 24.6082C18.6486 24.2787 16.3714 24.2601 16.3793 24.5962C16.3822 24.7184 16.0727 24.7589 15.6569 24.6805C15.2411 24.6021 14.778 24.7087 14.5245 24.9308C14.3234 25.1819 14.3766 25.2413 14.7349 25.077C15.0423 24.9448 15.7668 24.9521 16.2358 25.09ZM93.4758 22.3671C93.7343 22.3589 93.8341 22.2028 93.6754 22.055C93.5159 21.8766 93.2545 21.7627 93.0994 21.7677C92.996 21.771 92.8955 21.8966 92.8998 22.0799C92.9034 22.2326 93.1656 22.3771 93.4758 22.3671ZM429.501 11.6165C429.497 11.4638 429.906 11.2367 430.421 11.159C431.091 11.0152 431.038 10.9863 430.158 10.9839C428.917 10.9932 428.152 11.4763 428.987 11.7553C429.247 11.8387 429.505 11.7998 429.501 11.6165ZM54.9118 23.9102C55.3204 23.6831 55.6773 23.4576 55.6758 23.3965C55.6679 23.0604 54.692 23.3669 54.4436 23.8029C54.1951 24.2389 54.2476 24.2678 54.9118 23.9102ZM414.767 12.1504C415.183 12.2594 415.647 12.1833 415.798 12.0256C416.001 11.8356 415.636 11.725 415.067 11.7433C413.775 11.7848 413.676 11.9714 414.767 12.1504ZM408.678 12.8656C408.988 12.8556 409.45 12.6879 409.601 12.5302C410.006 12.1503 409.799 12.1569 408.826 12.5551C408.365 12.7533 408.316 12.8772 408.678 12.8656ZM436.597 11.9392C437.218 11.9499 437.887 11.7755 438.038 11.6178C438.189 11.4295 438.29 11.304 438.187 11.3378C438.084 11.3717 437.467 11.5138 436.746 11.6593C435.562 11.9113 435.562 11.9418 436.597 11.9392ZM445.698 11.6778C446.628 11.6479 446.679 11.5852 446.053 11.3607C445.009 10.9967 443.82 11.0348 444.243 11.4187C444.402 11.5665 445.077 11.6977 445.698 11.6778ZM462.305 11.573C462.413 11.753 462.565 11.6258 462.557 11.2898C462.596 10.7382 462.232 10.6887 458.767 10.7387C455.249 10.7904 454.94 10.8309 454.696 11.4503C454.5 11.9152 454.141 12.049 453.362 11.9517C452.74 11.8799 452.379 11.9526 452.59 12.0988C452.748 12.2465 452.441 12.3787 451.925 12.4258C451.253 12.478 451.358 12.5358 452.293 12.6892C453.28 12.841 453.846 12.7005 454.61 12.1868C455.373 11.6425 455.99 11.5004 457.183 11.615C458.064 11.6785 459.46 11.6337 460.388 11.4816C461.471 11.3246 462.144 11.3336 462.305 11.573ZM423.156 12.4316C423.523 12.6339 423.938 12.7123 424.091 12.6156C424.244 12.519 423.981 12.344 423.462 12.2689C422.734 12.1088 422.683 12.141 423.156 12.4316ZM426.671 12.2883C426.266 12.6987 426.939 12.6772 427.963 12.2468C428.63 11.9808 428.628 11.9197 427.853 11.9446C427.387 11.9595 426.822 12.1 426.671 12.2883ZM418.102 13.1747C418.361 13.1664 418.771 13.0004 418.922 12.8426C419.073 12.6543 419.019 12.5338 418.708 12.5437C418.45 12.552 418.039 12.6875 417.888 12.8758C417.737 13.0335 417.792 13.1846 418.102 13.1747ZM464.222 11.695C464.481 11.6867 464.581 11.5306 464.422 11.3828C464.262 11.2045 464.001 11.0905 463.846 11.0955C463.742 11.0988 463.642 11.2244 463.646 11.4077C463.65 11.5604 463.912 11.7049 464.222 11.695ZM471.202 11.4405C471.467 11.7377 471.261 11.7749 470.379 11.6503C468.457 11.3451 465.199 11.419 465.207 11.7551C465.211 11.9384 464.282 12.0294 462.935 11.9809C460.967 11.8911 460.71 11.9605 461.338 12.2767C461.811 12.5673 462.847 12.6258 464.396 12.4843C466.255 12.3024 466.877 12.3742 467.248 12.7597C467.565 13.0248 467.826 13.1081 467.822 12.9248C467.817 12.7415 469.105 12.5167 470.811 12.4314C472.413 12.3494 474.012 12.1147 474.266 11.9536C474.623 11.7282 474.363 11.6448 473.486 11.7647C472.763 11.849 471.88 11.6939 471.512 11.461C471.04 11.1705 470.937 11.1738 471.202 11.4405ZM436.37 13.2613C436.885 13.1836 437.296 13.0481 437.295 13.0175C437.295 12.987 436.878 12.878 436.36 12.8335C435.789 12.7601 435.377 12.865 435.382 13.0789C435.387 13.2928 435.803 13.3712 436.37 13.2613ZM456.895 12.5416C457.205 12.5316 457.46 12.3706 457.456 12.2178C457.452 12.0345 457.346 11.9156 457.242 11.9189C457.087 11.9239 456.831 12.0544 456.681 12.2427C456.529 12.4004 456.636 12.5499 456.895 12.5416ZM459.48 12.4586C459.79 12.4487 460.045 12.2876 460.041 12.1348C460.037 11.9515 459.931 11.8326 459.827 11.836C459.672 11.8409 459.417 11.9714 459.266 12.1597C459.114 12.3175 459.221 12.4669 459.48 12.4586ZM464.207 13.2548C464.217 13.652 464.836 13.571 465.961 13.0151C466.984 12.5236 466.776 12.4692 465.128 12.7972C464.612 12.8749 464.204 13.102 464.207 13.2548ZM471.194 13.3058C472.182 13.5187 474.978 13.6124 474.507 13.3829C474.402 13.3252 473.365 13.2362 472.226 13.181C470.774 13.0747 470.465 13.1152 471.194 13.3058ZM24.4369 28.3736C24.9001 28.267 25.2584 28.1026 25.2569 28.0415C25.2512 27.7971 24.2717 27.9508 23.9687 28.2663C23.8179 28.4546 24.0254 28.4785 24.4369 28.3736ZM488.182 16.2158C487.561 16.1746 487.142 15.974 487.293 15.8162C487.8 15.3414 487.234 15.5124 486.522 16.0244C485.963 16.4399 486.119 16.496 487.618 16.4173C488.858 16.347 489.012 16.2809 488.182 16.2158Z" fill="#FF9003"/>
</svg>
